<?xml version="1.0" encoding="utf-8"?>
<!-- Generator: Adobe Illustrator 16.0.4, SVG Export Plug-In . SVG Version: 6.00 Build 0)  -->
<!DOCTYPE svg PUBLIC "-//W3C//DTD SVG 1.1//EN" "http://www.w3.org/Graphics/SVG/1.1/DTD/svg11.dtd">
<svg version="1.1" id="AutoCAD" role="img" aria-labelledby="title description" xmlns="http://www.w3.org/2000/svg" xmlns:xlink="http://www.w3.org/1999/xlink" x="0px" y="0px" width="640px" height="640px" viewBox="0 0 640 640" enable-background="new 0 0 640 640" xml:space="preserve">

	<title id="title">Produzione dwg e corsi personalizzati AutoCAD a Trieste</title>
	<description id="description">TRACK Graphics di Trieste offre corsi di AutoCAD 2D e 3D, realizzazione disegni dwg con AutoCAD.</description>

	<g id="Produzione">
		<text transform="matrix(1 0 0 1 -388 120)" fill="#FFFFFF" font-family="'Raleway'" font-size="24">produzione</text>
		<text transform="matrix(1 0 0 1 -388 152)" fill="#FFFFFF" font-family="'Raleway'" font-size="24">file 100% dwg</text>
		<line fill="none" stroke="#FFFFFF" stroke-width="2" stroke-miterlimit="10" stroke-dasharray="10,10" x1="-452" y1="128" x2="-68" y2="128"/>
		<g>
			<path fill="#13B5EA" d="M-451.998,178C-479.569,178-502,155.57-502,128s22.431-50,50.002-50C-424.429,78-402,100.43-402,128
				S-424.429,178-451.998,178z"/>
			<path fill="#FFFFFF" d="M-451.998,80C-425.49,80-404,101.492-404,128c0,26.511-21.49,48-47.998,48
				C-478.51,176-500,154.511-500,128C-500,101.492-478.51,80-451.998,80 M-451.998,76C-480.672,76-504,99.327-504,128
				s23.328,52,52.002,52c28.672,0,51.998-23.327,51.998-52S-423.326,76-451.998,76L-451.998,76z"/>
		</g>
		<text transform="matrix(1 0 0 1 -472.5708 147.2549)" fill="#FFFFFF" font-family="'FontAwesome'" font-size="47.9995"></text>
	</g>
	
	<g id="Standard">
		<text transform="matrix(1 0 0 1 -420 248)" fill="#FFFFFF" font-family="'Raleway'" font-size="24">standard</text>
		<text transform="matrix(1 0 0 1 -420 280)" fill="#FFFFFF" font-family="'Raleway'" font-size="24">CAD</text>
		<line fill="none" stroke="#FFFFFF" stroke-width="2" stroke-miterlimit="10" stroke-dasharray="10,10" x1="-468" y1="256" x2="-252" y2="256"/>
		<g>
			<path fill="#13B5EA" d="M-467.998,290C-486.747,290-502,274.748-502,256s15.253-34,34.002-34c18.747,0,33.998,15.252,33.998,34
				S-449.251,290-467.998,290z"/>
			<path fill="#FFFFFF" d="M-467.998,224c17.671,0,31.998,14.328,31.998,32c0,17.674-14.327,32-31.998,32
				C-485.673,288-500,273.674-500,256C-500,238.328-485.673,224-467.998,224 M-467.998,220C-487.85,220-504,236.149-504,256
				s16.15,36,36.002,36c19.85,0,35.998-16.149,35.998-36S-448.148,220-467.998,220L-467.998,220z"/>
		</g>
		<text transform="matrix(1 0 0 1 -484 268.8364)" fill="#FFFFFF" font-family="'FontAwesome'" font-size="31.9997"></text>
	</g>
	
	<g id="Corsi">
		<text transform="matrix(1 0 0 1 -388 376)" fill="#FFFFFF" font-family="'Raleway'" font-size="24">corsi AutoCAD</text>
		<text transform="matrix(1 0 0 1 -388 408)" fill="#FFFFFF" font-family="'Raleway'" font-size="24">personalizzati</text>
		<line fill="none" stroke="#FFFFFF" stroke-width="2" stroke-miterlimit="10" stroke-dasharray="10,10" x1="-452" y1="384" x2="-68" y2="384"/>
		<g>
			<path fill="#13B5EA" d="M-451.998,434C-479.569,434-502,411.57-502,384s22.431-50,50.002-50c27.569,0,49.998,22.43,49.998,50
				S-424.429,434-451.998,434z"/>
			<path fill="#FFFFFF" d="M-451.998,336C-425.49,336-404,357.492-404,384c0,26.512-21.49,48-47.998,48
				C-478.51,432-500,410.512-500,384C-500,357.492-478.51,336-451.998,336 M-451.998,332C-480.672,332-504,355.327-504,384
				s23.328,52,52.002,52c28.672,0,51.998-23.327,51.998-52S-423.326,332-451.998,332L-451.998,332z"/>
		</g>
		<text transform="matrix(1 0 0 1 -474.2852 403.2549)" fill="#FFFFFF" font-family="'FontAwesome'" font-size="47.9995"></text>
	</g>
	
	<g id="Software">
		<text transform="matrix(1 0 0 1 -420 504)" fill="#FFFFFF" font-family="'Raleway'" font-size="24">software</text>
		<text transform="matrix(1 0 0 1 -420 536)" fill="#FFFFFF" font-family="'Raleway'" font-size="24">per AutoCAD</text>
		<line fill="none" stroke="#FFFFFF" stroke-width="2" stroke-miterlimit="10" stroke-dasharray="10,10" x1="-468" y1="512" x2="-164" y2="512"/>
		<g>
			<path fill="#13B5EA" d="M-467.998,546C-486.747,546-502,530.748-502,512s15.253-34,34.002-34c18.747,0,33.998,15.252,33.998,34
				S-449.251,546-467.998,546z"/>
			<path fill="#FFFFFF" d="M-467.998,480c17.671,0,31.998,14.328,31.998,32c0,17.674-14.327,32-31.998,32
				C-485.673,544-500,529.674-500,512C-500,494.328-485.673,480-467.998,480 M-467.998,476C-487.85,476-504,492.149-504,512
				s16.15,36,36.002,36c19.85,0,35.998-16.149,35.998-36S-448.148,476-467.998,476L-467.998,476z"/>
		</g>
		<text transform="matrix(1 0 0 1 -481.7144 524.8359)" fill="#FFFFFF" font-family="'FontAwesome'" font-size="31.9997"></text>
	</g>
	
	<g id="Fulmine">
		<path fill="#FFFFFF" d="M582.768-362.282L428.479-31.703c-2.285,4.285-6.857,7.143-12,7.143c-1.143,0-2.571-0.286-4-0.571
			c-6.285-2-10-8-8.571-14l56.286-230.863l-116.002,28.858c-1.143,0.285-2.285,0.285-3.429,0.285c-3.144,0-6.571-1.143-8.857-3.143
			c-3.429-2.857-4.571-7.143-3.714-11.144l57.43-235.719c1.428-5.429,6.571-9.143,12.571-9.143h93.717
			c7.144,0,12.857,5.429,12.857,12c0,1.714-0.571,3.428-1.429,5.143l-48.858,132.289l113.146-28c1.143-0.286,2.285-0.571,3.429-0.571
			c3.714,0,7.144,1.714,9.714,4.285C583.911-371.426,584.768-366.568,582.768-362.282z"/>
	</g>

</svg>
