<?xml version="1.0" encoding="utf-8"?>
<!-- Generator: Adobe Illustrator 16.0.4, SVG Export Plug-In . SVG Version: 6.00 Build 0)  -->
<!DOCTYPE svg PUBLIC "-//W3C//DTD SVG 1.1//EN" "http://www.w3.org/Graphics/SVG/1.1/DTD/svg11.dtd">
<svg version="1.1" id="svg" xmlns="http://www.w3.org/2000/svg" xmlns:xlink="http://www.w3.org/1999/xlink" x="0px" y="0px"
	 width="720px" height="270px" viewBox="0 0 720 270" enable-background="new 0 0 720 270" xml:space="preserve">
<filter  height="105%" width="105%" y="0" x="0" id="ombra">
	<feOffset  result="offOut" in="SourceAlpha" dy="2" dx="2"></feOffset>
	<feGaussianBlur  result="blurOut" in="offOut" stdDeviation="2"></feGaussianBlur>
	<feBlend  in2="blurOut" in="SourceGraphic" mode="normal"></feBlend>
</filter>

<g id="basta" filter="url(#ombra)">
	<path id="b" fill="#FFFFFF" d="M114.683,250.904c-24.888,0-42.661-9.616-53.326-28.857v25.721H9.6V18.78H69.2v88.458
		c4.808-8.988,11.605-15.841,20.389-20.546s19.134-7.058,31.054-7.058c10.038,0,19.396,2.196,28.074,6.587
		c8.675,4.392,16.155,10.405,22.429,18.037c6.273,7.636,11.186,16.733,14.743,27.29c3.554,10.562,5.333,22.013,5.333,34.349
		c0,12.344-1.936,23.684-5.803,34.033c-3.872,10.354-9.205,19.293-15.998,26.821c-6.798,7.526-14.9,13.438-24.311,17.724
		C135.7,248.759,125.554,250.904,114.683,250.904z M97.431,200.715c9.827,0,17.723-3.137,23.683-9.41
		c5.961-6.272,8.939-14.634,8.939-25.095c0-5.019-0.784-9.724-2.353-14.115c-1.568-4.391-3.661-8.258-6.273-11.604
		c-2.617-3.344-5.754-5.961-9.411-7.842c-3.661-1.883-7.685-2.824-12.076-2.824c-6.272,0-12.233,2.25-17.88,6.744
		c-5.646,4.5-9.934,10.406-12.859,17.724v29.487C76.934,195.068,86.344,200.715,97.431,200.715z"/>
	<path id="a_1_" fill="#FFFFFF" d="M224.466,250.904c-8.154,0-15.791-1.361-22.897-4.077c-7.11-2.714-13.229-6.431-18.351-11.136
		c-5.126-4.705-9.15-10.299-12.076-16.782c-2.931-6.479-4.392-13.489-4.392-21.017c0-8.361,1.773-15.998,5.333-22.898
		c3.553-6.9,8.469-12.861,14.743-17.879c6.272-5.021,13.748-8.889,22.428-11.607c8.675-2.715,18.242-4.076,28.703-4.076
		c13.38,0,24.467,2.092,33.249,6.272v-5.021c0-7.733-2.249-13.488-6.745-17.251c-4.497-3.765-11.764-5.646-21.799-5.646
		c-9.41,0-18.093,1.52-26.036,4.548c-7.95,3.034-16.312,7.479-25.096,13.331l-17.252-37.014
		c21.747-14.008,46.528-21.017,74.343-21.017c26.35,0,46.632,5.856,60.854,17.566c14.217,11.714,21.33,29.28,21.33,52.698v31.994
		c0,5.646,0.833,9.568,2.509,11.764c1.672,2.195,4.598,3.505,8.782,3.921v50.188c-4.812,1.045-9.361,1.828-13.645,2.354
		c-4.289,0.521-8.104,0.783-11.45,0.783c-10.664,0-18.772-1.937-24.312-5.801c-5.542-3.867-9.149-9.567-10.818-17.098l-1.256-5.959
		c-7.321,9.41-15.792,16.576-25.407,21.487C245.588,248.443,235.338,250.904,224.466,250.904z M242.347,208.245
		c3.554,0,7.214-0.573,10.979-1.726c3.765-1.148,7.106-2.668,10.038-4.55c2.298-1.672,4.182-3.499,5.646-5.489
		c1.461-1.983,2.196-4.024,2.196-6.116v-12.233c-3.561-1.254-7.425-2.299-11.607-3.137c-4.184-0.833-7.949-1.254-11.291-1.254
		c-7.325,0-13.387,1.779-18.192,5.333c-4.815,3.557-7.217,8.052-7.217,13.487c0,4.602,1.827,8.365,5.488,11.291
		C232.045,206.783,236.701,208.245,242.347,208.245z"/>
	<path id="s" fill="#FFFFFF" d="M396.709,250.904c-14.431,0-28.546-2.354-42.348-7.059s-25.516-11.552-35.133-20.546l20.389-35.76
		c10.244,6.899,20.126,12.233,29.644,15.998c9.514,3.767,18.242,5.646,26.192,5.646c8.361,0,12.548-2.613,12.548-7.843
		c0-2.925-1.622-5.434-4.863-7.526c-3.243-2.088-9.566-4.496-18.978-7.217c-11.714-3.342-21.486-6.635-29.33-9.879
		c-7.842-3.24-14.223-6.746-19.135-10.511c-4.915-3.763-8.419-7.942-10.507-12.547c-2.094-4.597-3.137-10.037-3.137-16.312
		c0-8.361,1.671-16.101,5.018-23.212c3.344-7.107,8-13.277,13.959-18.507c5.959-5.225,13.066-9.254,21.33-12.077
		c8.259-2.823,17.302-4.234,27.135-4.234c12.125,0,23.684,1.568,34.661,4.705c10.979,3.137,22.007,9.519,33.094,19.134
		l-22.584,35.761c-10.248-6.69-18.821-11.45-25.724-14.272c-6.899-2.823-13.385-4.235-19.447-4.235c-3.56,0-6.484,0.682-8.783,2.039
		c-2.305,1.362-3.45,3.505-3.45,6.431c0,3.137,1.672,5.7,5.019,7.687c3.345,1.988,9.931,4.233,19.764,6.742
		c11.92,3.139,21.958,6.433,30.111,9.883c8.156,3.449,14.69,7.215,19.605,11.291c4.912,4.078,8.416,8.683,10.509,13.805
		c2.087,5.125,3.137,11.029,3.137,17.721c0,8.577-1.567,16.21-4.705,22.899c-3.137,6.694-7.685,12.444-13.646,17.253
		c-5.96,4.812-13.174,8.469-21.645,10.979C416.942,249.65,407.373,250.904,396.709,250.904z"/>
	<path id="t" fill="#FFFFFF" d="M562.552,238.673c-8.368,3.556-17.309,6.537-26.821,8.938c-9.518,2.4-18.874,3.607-28.073,3.607
		c-6.695,0-13.071-0.84-19.135-2.511c-6.068-1.671-11.347-4.392-15.842-8.155c-4.499-3.766-8.052-8.676-10.665-14.744
		c-2.617-6.062-3.921-13.59-3.921-22.584v-75.598h-20.391V82.771h20.391V31.014h59.6v51.758h32.311v44.856h-32.311v54.582
		c0,5.44,1.146,9.253,3.45,11.447c2.299,2.196,5.438,3.295,9.411,3.295c2.925,0,6.272-0.472,10.038-1.411
		c3.764-0.941,7.527-2.245,11.291-3.921L562.552,238.673z"/>
	<path id="a" fill="#FFFFFF" d="M591.97,250.904c-8.154,0-15.791-1.361-22.898-4.077c-7.11-2.714-13.229-6.431-18.351-11.136
		c-5.126-4.705-9.149-10.299-12.077-16.782c-2.93-6.479-4.392-13.489-4.392-21.017c0-8.361,1.774-15.998,5.334-22.898
		c3.554-6.9,8.469-12.861,14.741-17.879c6.273-5.021,13.748-8.889,22.431-11.607c8.675-2.715,18.24-4.076,28.7-4.076
		c13.382,0,24.468,2.092,33.25,6.272v-5.021c0-7.733-2.25-13.488-6.744-17.251c-4.498-3.765-11.764-5.646-21.801-5.646
		c-9.409,0-18.09,1.52-26.036,4.548c-7.948,3.034-16.311,7.479-25.095,13.331l-17.253-37.014
		c21.748-14.008,46.528-21.017,74.344-21.017c26.35,0,46.632,5.856,60.854,17.566c14.219,11.714,21.331,29.28,21.331,52.698v31.994
		c0,5.646,0.833,9.568,2.509,11.764c1.671,2.195,4.599,3.505,8.783,3.921v50.188c-4.812,1.045-9.362,1.828-13.646,2.354
		c-4.288,0.521-8.105,0.783-11.449,0.783c-10.665,0-18.772-1.937-24.312-5.801c-5.543-3.867-9.149-9.567-10.821-17.098l-1.254-5.959
		c-7.322,9.41-15.793,16.576-25.408,21.487C613.09,248.443,602.842,250.904,591.97,250.904z M609.85,208.245
		c3.554,0,7.215-0.573,10.979-1.726c3.766-1.148,7.106-2.668,10.038-4.55c2.298-1.672,4.181-3.499,5.646-5.489
		c1.462-1.983,2.196-4.024,2.196-6.116v-12.233c-3.561-1.254-7.426-2.299-11.606-3.137c-4.187-0.833-7.949-1.254-11.293-1.254
		c-7.322,0-13.385,1.779-18.192,5.333c-4.813,3.557-7.216,8.052-7.216,13.487c0,4.602,1.829,8.365,5.489,11.291
		C599.548,206.783,604.203,208.245,609.85,208.245z"/>
</g>
</svg>
