<?xml version="1.0" encoding="utf-8"?>
<!-- Generator: Adobe Illustrator 16.0.4, SVG Export Plug-In . SVG Version: 6.00 Build 0)  -->
<!DOCTYPE svg PUBLIC "-//W3C//DTD SVG 1.1//EN" "http://www.w3.org/Graphics/SVG/1.1/DTD/svg11.dtd">
<svg version="1.1" id="svg" xmlns="http://www.w3.org/2000/svg" xmlns:xlink="http://www.w3.org/1999/xlink" x="0px" y="0px"
	 width="720px" height="270px" viewBox="0 0 720 270" enable-background="new 0 0 720 270" xml:space="preserve">
<filter  height="105%" width="105%" y="0" x="0" id="ombra">
	<feOffset  result="offOut" in="SourceAlpha" dy="2" dx="2"></feOffset>
	<feGaussianBlur  result="blurOut" in="offOut" stdDeviation="2"></feGaussianBlur>
	<feBlend  in2="blurOut" in="SourceGraphic" mode="normal"></feBlend>
</filter>

<g id="carta" filter="url(#ombra)">
	<path id="c" fill="#FFFFFF" d="M10,159.166c0-11.298,1.986-22.127,5.963-32.483c3.972-10.357,9.778-19.459,17.419-27.306
		c7.635-7.846,17.105-14.123,28.403-18.831c11.299-4.708,24.27-7.062,38.918-7.062c20.086,0,36.877,4.188,50.373,12.554
		c13.495,8.371,23.588,19.145,30.286,32.327L123.3,135.941c-5.65-8.16-13.29-12.24-22.912-12.24c-8.159,0-15.065,3.089-20.713,9.259
		c-5.649,6.174-8.475,14.909-8.475,26.207c0,11.299,2.825,20.038,8.475,26.206c5.648,6.175,12.554,9.258,20.713,9.258
		c9.622,0,17.262-4.079,22.912-12.238l58.062,17.574c-6.698,13.183-16.792,23.962-30.286,32.326
		c-13.496,8.372-30.287,12.554-50.373,12.554c-14.648,0-27.619-2.354-38.918-7.062c-11.298-4.707-20.768-10.984-28.403-18.831
		c-7.641-7.846-13.447-16.945-17.419-27.304C11.986,181.291,10,170.465,10,159.166z"/>
	<path id="a_1_" fill="#FFFFFF" d="M222.099,244.846c-8.16,0-15.8-1.362-22.911-4.079c-7.115-2.716-13.236-6.434-18.36-11.141
		c-5.129-4.708-9.155-10.305-12.083-16.792c-2.932-6.483-4.394-13.496-4.394-21.026c0-8.367,1.775-16.009,5.336-22.912
		c3.555-6.904,8.474-12.868,14.75-17.889c6.277-5.023,13.756-8.893,22.44-11.614c8.68-2.716,18.253-4.08,28.718-4.08
		c13.388,0,24.48,2.093,33.269,6.277v-5.021c0-7.738-2.251-13.496-6.749-17.262c-4.501-3.766-11.77-5.649-21.812-5.649
		c-9.416,0-18.101,1.521-26.05,4.551c-7.954,3.036-16.32,7.484-25.108,13.339l-17.262-37.034
		c21.759-14.016,46.553-21.029,74.382-21.029c26.363,0,46.656,5.86,60.887,17.576c14.226,11.72,21.343,29.296,21.343,52.727v32.012
		c0,5.65,0.833,9.573,2.51,11.77c1.672,2.197,4.601,3.507,8.787,3.923v50.217c-4.814,1.045-9.366,1.829-13.651,2.354
		c-4.291,0.521-8.111,0.784-11.456,0.784c-10.671,0-18.782-1.937-24.324-5.805c-5.546-3.869-9.154-9.571-10.826-17.105l-1.256-5.963
		c-7.326,9.416-15.801,16.586-25.422,21.499C243.229,242.385,232.976,244.846,222.099,244.846z M239.988,202.164
		c3.556,0,7.218-0.573,10.985-1.726c3.767-1.149,7.111-2.67,10.044-4.552c2.299-1.674,4.182-3.502,5.648-5.492
		c1.462-1.986,2.198-4.027,2.198-6.121v-12.239c-3.562-1.256-7.429-2.301-11.613-3.139c-4.188-0.834-7.953-1.255-11.299-1.255
		c-7.327,0-13.392,1.78-18.203,5.336c-4.816,3.558-7.219,8.056-7.219,13.495c0,4.604,1.829,8.37,5.493,11.297
		C229.68,200.702,234.34,202.164,239.988,202.164z"/>
	<path id="r" fill="#FFFFFF" d="M447.097,127.467c-11.509,0-21.969,1.255-31.385,3.766c-9.415,2.511-16.428,6.698-21.028,12.554
		v97.921h-59.632V76.623h54.611v31.385c5.854-11.087,13.127-19.615,21.812-25.578c8.681-5.963,18.047-8.945,28.091-8.945
		c3.972,0,6.482,0.108,7.531,0.314V127.467z"/>
	<path id="t" fill="#FFFFFF" d="M555.026,232.607c-8.372,3.559-17.317,6.541-26.836,8.943c-9.522,2.403-18.884,3.611-28.088,3.611
		c-6.7,0-13.08-0.84-19.146-2.512c-6.071-1.672-11.353-4.394-15.851-8.161c-4.501-3.767-8.056-8.68-10.67-14.751
		c-2.619-6.065-3.924-13.598-3.924-22.597v-75.638h-20.4V76.623h20.4V24.838h59.632v51.785h32.327v44.881h-32.327v54.611
		c0,5.442,1.147,9.257,3.452,11.453c2.301,2.197,5.439,3.297,9.416,3.297c2.927,0,6.277-0.471,10.044-1.412
		c3.765-0.942,7.532-2.246,11.297-3.923L555.026,232.607z"/>
	<path id="a" fill="#FFFFFF" d="M592.307,244.846c-8.159,0-15.8-1.362-22.911-4.079c-7.115-2.716-13.235-6.434-18.36-11.141
		c-5.129-4.708-9.154-10.305-12.083-16.792c-2.932-6.483-4.394-13.496-4.394-21.026c0-8.367,1.775-16.009,5.336-22.912
		c3.555-6.904,8.473-12.868,14.75-17.889c6.276-5.023,13.755-8.893,22.441-11.614c8.68-2.716,18.252-4.08,28.717-4.08
		c13.388,0,24.479,2.093,33.269,6.277v-5.021c0-7.738-2.251-13.496-6.749-17.262c-4.501-3.766-11.77-5.649-21.812-5.649
		c-9.416,0-18.101,1.521-26.051,4.551c-7.953,3.036-16.319,7.484-25.107,13.339l-17.262-37.034
		c21.759-14.016,46.553-21.029,74.383-21.029c26.363,0,46.656,5.86,60.887,17.576c14.226,11.72,21.342,29.296,21.342,52.727v32.012
		c0,5.65,0.834,9.573,2.511,11.77c1.672,2.197,4.601,3.507,8.787,3.923v50.217c-4.815,1.045-9.366,1.829-13.651,2.354
		c-4.291,0.521-8.111,0.784-11.457,0.784c-10.67,0-18.781-1.937-24.323-5.805c-5.546-3.869-9.154-9.571-10.826-17.105l-1.256-5.963
		c-7.326,9.416-15.801,16.586-25.422,21.499C613.438,242.385,603.184,244.846,592.307,244.846z M610.196,202.164
		c3.556,0,7.218-0.573,10.984-1.726c3.768-1.149,7.111-2.67,10.044-4.552c2.299-1.674,4.183-3.502,5.649-5.492
		c1.462-1.986,2.197-4.027,2.197-6.121v-12.239c-3.562-1.256-7.43-2.301-11.613-3.139c-4.188-0.834-7.953-1.255-11.299-1.255
		c-7.327,0-13.393,1.78-18.203,5.336c-4.816,3.558-7.219,8.056-7.219,13.495c0,4.604,1.829,8.37,5.492,11.297
		C599.889,200.702,604.548,202.164,610.196,202.164z"/>
</g>
</svg>
