<?xml version="1.0" encoding="utf-8"?>
<!-- Generator: Adobe Illustrator 16.0.4, SVG Export Plug-In . SVG Version: 6.00 Build 0)  -->
<!DOCTYPE svg PUBLIC "-//W3C//DTD SVG 1.1//EN" "http://www.w3.org/Graphics/SVG/1.1/DTD/svg11.dtd">
<svg version="1.1" id="Consumabili" role="img" aria-labelledby="title description" xmlns="http://www.w3.org/2000/svg" xmlns:xlink="http://www.w3.org/1999/xlink" x="0px" y="0px" width="640px" height="640px" viewBox="0 0 640 640" enable-background="new 0 0 640 640" xml:space="preserve">

	<title id="title">Cartucce toner originali e compatibili a Trieste</title>
	<description id="description">TRACK Graphics Trieste offre cartucce e toner compatibili di qualità per farti risparmiare sui costi di stampa.</description>
	<g id="Goccia">
		<path fill="#FFFFFF" d="M492.866-5.715c-75.802,0-137.141-61.34-137.141-137.145c0-27.054,8.304-52.232,21.696-73.66
			c13.66-21.429,70.98-94.017,92.677-166.337C473.581-394.375,484.295-400,492.866-400s19.554,5.625,22.768,17.143
			c21.696,72.32,79.017,144.908,92.677,166.337c13.66,21.428,21.696,46.606,21.696,73.66C630.007-67.055,568.668-5.715,492.866-5.715
			z M487.51-127.057c-3.482-5.358-17.679-23.571-23.304-41.519c-0.804-2.945-3.482-4.285-5.625-4.285s-4.821,1.34-5.625,4.285
			c-5.625,17.948-19.821,36.161-23.304,41.519c-3.214,5.357-5.356,11.786-5.356,18.483c0,19.018,15.268,34.286,34.285,34.286
			s34.285-15.268,34.285-34.286C492.866-115.271,490.724-121.7,487.51-127.057z"/>
	</g>
	
	<g id="Ecologia">
		<text transform="matrix(1 0 0 1 -414 504)" fill="#FFFFFF" font-family="'Raleway'" font-size="24">dai una mano</text>
		<text transform="matrix(1 0 0 1 -414 536)" fill="#FFFFFF" font-family="'Raleway'" font-size="24">all’ambiente</text>
		<g>
			<path fill="#13B5EA" d="M-461.998,546C-480.747,546-496,530.748-496,512s15.253-34,34.002-34c18.747,0,33.998,15.252,33.998,34
				S-443.251,546-461.998,546z"/>
			<path fill="#FFFFFF" d="M-461.998,480c17.671,0,31.998,14.328,31.998,32c0,17.674-14.327,32-31.998,32
				C-479.673,544-494,529.674-494,512C-494,494.328-479.673,480-461.998,480 M-461.998,476C-481.85,476-498,492.149-498,512
				s16.15,36,36.002,36c19.85,0,35.998-16.149,35.998-36S-442.148,476-461.998,476L-461.998,476z"/>
		</g>
		<text transform="matrix(1 0 0 1 -478.0005 524.7979)" fill="#FFFFFF" font-family="'FontAwesome'" font-size="31.9997"></text>
		<polyline fill="none" stroke="#FFFFFF" stroke-width="2" stroke-miterlimit="10" stroke-dasharray="10,10" points="-430,512 
			-206,512 -142,448 	"/>
	</g>
	
	<g id="Risparmio">
		<text transform="matrix(1 0 0 1 -388 376)" fill="#FFFFFF" font-family="'Raleway'" font-size="24">risparmio</text>
		<text transform="matrix(1 0 0 1 -388 408)" fill="#FFFFFF" font-family="'Raleway'" font-size="24">fino al 70%</text>
		<polyline fill="none" stroke="#FFFFFF" stroke-width="2" stroke-miterlimit="10" stroke-dasharray="10,10" points="-452,384 
			-230,384 -141.999,304 	"/>
		<g>
			<path fill="#13B5EA" d="M-451.998,434C-479.569,434-502,411.57-502,384s22.431-50,50.002-50c27.569,0,49.998,22.43,49.998,50
				S-424.429,434-451.998,434z"/>
			<path fill="#FFFFFF" d="M-451.998,336C-425.49,336-404,357.492-404,384c0,26.511-21.49,48-47.998,48
				C-478.51,432-500,410.511-500,384C-500,357.492-478.51,336-451.998,336 M-451.998,332C-480.672,332-504,355.327-504,384
				s23.328,52,52.002,52c28.672,0,51.998-23.327,51.998-52S-423.326,332-451.998,332L-451.998,332z"/>
		</g>
		<text transform="matrix(1 0 0 1 -472.5703 403.1973)" fill="#FFFFFF" font-family="'FontAwesome'" font-size="47.9995"></text>
	</g>
	
	<g id="Affidabilita">
		<text transform="matrix(1 0 0 1 -414 184)" fill="#FFFFFF" font-family="'Raleway'" font-size="24">affidabilità</text>
		<line fill="none" x1="-500" y1="192" x2="-140" y2="192"/>
		<g>
			<path fill="#13B5EA" d="M-461.998,226C-480.747,226-496,210.748-496,192s15.253-34,34.002-34c18.747,0,33.998,15.252,33.998,34
				S-443.251,226-461.998,226z"/>
			<path fill="#FFFFFF" d="M-461.998,160c17.671,0,31.998,14.328,31.998,32c0,17.674-14.327,32-31.998,32
				C-479.673,224-494,209.674-494,192C-494,174.328-479.673,160-461.998,160 M-461.998,156C-481.85,156-498,172.149-498,192
				s16.15,36,36.002,36c19.85,0,35.998-16.149,35.998-36S-442.148,156-461.998,156L-461.998,156z"/>
		</g>
		<text transform="matrix(1 0 0 1 -475.7148 204.7979)" fill="#FFFFFF" font-family="'FontAwesome'" font-size="31.9997"></text>
		<text transform="matrix(1 0 0 1 -416 216)" fill="#FFFFFF" font-family="'Raleway'" font-size="24">garantita</text>
		<polyline fill="none" stroke="#FFFFFF" stroke-width="2" stroke-miterlimit="10" stroke-dasharray="10,10" points="-430,192 
			-270,192 -182,280 	"/>
	</g>
	
	<g id="Scelta">
		<text transform="matrix(1 0 0 1 -388 56)" fill="#FFFFFF" font-family="'Raleway'" font-size="24">tutti i modelli</text>
		<text transform="matrix(1 0 0 1 -388 88)" fill="#FFFFFF" font-family="'Raleway'" font-size="24">laser e inkjet</text>
		<polyline fill="none" stroke="#FFFFFF" stroke-width="2" stroke-miterlimit="10" stroke-dasharray="10,10" points="-452,64 
			-222,64 -77.997,200 	"/>
		<g>
			<path fill="#13B5EA" d="M-451.998,114C-479.569,114-502,91.57-502,64s22.431-50,50.002-50C-424.429,14-402,36.43-402,64
				S-424.429,114-451.998,114z"/>
			<path fill="#FFFFFF" d="M-451.998,16C-425.49,16-404,37.492-404,64c0,26.511-21.49,48-47.998,48C-478.51,112-500,90.511-500,64
				C-500,37.492-478.51,16-451.998,16 M-451.998,12C-480.672,12-504,35.327-504,64s23.328,52,52.002,52
				C-423.326,116-400,92.673-400,64S-423.326,12-451.998,12L-451.998,12z"/>
		</g>
		<text transform="matrix(1 0 0 1 -474.2847 83.1973)" fill="#FFFFFF" font-family="'FontAwesome'" font-size="47.9995"></text>
	</g>

</svg>
