<?xml version="1.0" encoding="utf-8"?>
<!-- Generator: Adobe Illustrator 16.0.4, SVG Export Plug-In . SVG Version: 6.00 Build 0)  -->
<!DOCTYPE svg PUBLIC "-//W3C//DTD SVG 1.1//EN" "http://www.w3.org/Graphics/SVG/1.1/DTD/svg11.dtd">
<svg version="1.1" id="svg" xmlns="http://www.w3.org/2000/svg" xmlns:xlink="http://www.w3.org/1999/xlink" x="0px" y="0px"
	 width="480px" height="162.842px" viewBox="0 0 480 162.842" enable-background="new 0 0 480 162.842" xml:space="preserve">
<filter  height="105%" width="105%" y="0" x="0" id="ombra">
	<feOffset  result="offOut" in="SourceAlpha" dy="2" dx="2"></feOffset>
	<feGaussianBlur  result="blurOut" in="offOut" stdDeviation="2"></feGaussianBlur>
	<feBlend  in2="blurOut" in="SourceGraphic" mode="normal"></feBlend>
</filter>

<g id="fatto" filter="url(#ombra)">
	<path id="F" fill="#FFFFFF" d="M10,151.319v-142H107.4v34H49v23.6h47.6v31.601H49v52.799H10z"/>
	<path id="a" fill="#FFFFFF" d="M121.498,153.319c-5.2,0-10.069-0.867-14.601-2.6c-4.534-1.729-8.435-4.1-11.699-7.1
		c-3.27-3-5.835-6.566-7.7-10.7c-1.869-4.132-2.8-8.601-2.8-13.399c0-5.332,1.131-10.201,3.399-14.601
		c2.266-4.399,5.4-8.2,9.4-11.399c4-3.201,8.766-5.666,14.3-7.4c5.531-1.73,11.631-2.6,18.3-2.6c8.531,0,15.601,1.334,21.2,4v-3.201
		c0-4.93-1.436-8.6-4.301-11c-2.868-2.4-7.5-3.6-13.899-3.6c-6,0-11.535,0.969-16.6,2.9c-5.069,1.935-10.4,4.769-16,8.5l-11-23.6
		c13.865-8.932,29.666-13.4,47.399-13.4c16.801,0,29.731,3.734,38.801,11.2c9.064,7.469,13.601,18.669,13.601,33.6v20.399
		c0,3.601,0.531,6.101,1.6,7.5c1.065,1.399,2.933,2.233,5.601,2.5v32c-3.068,0.666-5.97,1.166-8.699,1.5
		c-2.734,0.332-5.169,0.5-7.301,0.5c-6.8,0-11.97-1.234-15.5-3.699c-3.534-2.467-5.834-6.1-6.899-10.9l-0.8-3.8
		c-4.669,6-10.069,10.569-16.2,13.7C134.963,151.752,128.429,153.319,121.498,153.319z M132.897,126.121
		c2.267,0,4.601-0.365,7-1.101c2.4-0.731,4.531-1.701,6.4-2.899c1.465-1.065,2.665-2.231,3.6-3.5c0.933-1.267,1.4-2.565,1.4-3.899
		v-7.801c-2.271-0.8-4.734-1.466-7.4-2c-2.669-0.531-5.068-0.8-7.2-0.8c-4.668,0-8.533,1.135-11.6,3.399
		c-3.069,2.269-4.6,5.135-4.6,8.601c0,2.935,1.166,5.334,3.5,7.198C126.329,125.188,129.297,126.121,132.897,126.121z"/>
	<path id="t_1_" fill="#FFFFFF" d="M259.298,145.521c-5.335,2.269-11.035,4.168-17.102,5.699
		c-6.067,1.531-12.033,2.301-17.898,2.301c-4.271,0-8.335-0.535-12.2-1.601c-3.869-1.065-7.234-2.8-10.101-5.2
		c-2.868-2.4-5.135-5.531-6.801-9.4c-1.669-3.864-2.5-8.664-2.5-14.398v-48.2h-13v-28.6h13v-33h38v33h20.602v28.6h-20.602v34.801
		c0,3.469,0.731,5.898,2.2,7.299c1.466,1.4,3.466,2.101,6,2.101c1.865,0,4-0.3,6.4-0.899c2.398-0.601,4.8-1.432,7.199-2.5
		L259.298,145.521z"/>
	<path id="t" fill="#FFFFFF" d="M319.574,145.521c-5.335,2.269-11.035,4.168-17.101,5.699c-6.068,1.531-12.034,2.301-17.898,2.301
		c-4.271,0-8.335-0.535-12.2-1.601c-3.869-1.065-7.234-2.8-10.102-5.2c-2.868-2.4-5.134-5.531-6.8-9.4
		c-1.669-3.864-2.5-8.664-2.5-14.398v-48.2h-13v-28.6h13v-33h38v33h20.601v28.6h-20.601v34.801c0,3.469,0.731,5.898,2.2,7.299
		c1.466,1.4,3.466,2.101,6,2.101c1.865,0,4-0.3,6.4-0.899c2.398-0.601,4.799-1.432,7.198-2.5L319.574,145.521z"/>
	<path id="o" fill="#FFFFFF" d="M357.854,153.319c-9.469,0-17.77-1.5-24.9-4.5c-7.135-3-13.135-7-18-12
		c-4.868-5-8.533-10.799-10.999-17.398c-2.47-6.602-3.7-13.5-3.7-20.699s1.23-14.101,3.7-20.701c2.466-6.6,6.131-12.4,10.999-17.4
		c4.865-5,10.865-9,18-12c7.132-3,15.433-4.5,24.9-4.5c9.331,0,17.6,1.5,24.8,4.5s13.231,7,18.101,12c4.865,5,8.53,10.8,11,17.4
		c2.466,6.6,3.699,13.5,3.699,20.701c0,7.199-1.233,14.1-3.699,20.699c-2.47,6.602-6.135,12.398-11,17.398
		c-4.868,5-10.899,9-18.101,12S367.185,153.319,357.854,153.319z M339.253,98.722c0,7.067,1.73,12.6,5.199,16.6
		c3.467,4,7.933,6,13.4,6c5.465,0,9.931-2,13.399-6c3.466-4,5.199-9.531,5.199-16.6c0-7.065-1.733-12.601-5.199-16.601
		c-3.47-4-7.936-6-13.399-6c-5.469,0-9.935,2-13.4,6C340.984,86.121,339.253,91.655,339.253,98.722z"/>
	<path id="_x2E_" fill="#FFFFFF" d="M404.253,151.319v-36.799h30.8v36.799H404.253z"/>
</g>
</svg>
