<?xml version="1.0" encoding="utf-8"?>
<!-- Generator: Adobe Illustrator 16.0.4, SVG Export Plug-In . SVG Version: 6.00 Build 0)  -->
<!DOCTYPE svg PUBLIC "-//W3C//DTD SVG 1.1//EN" "http://www.w3.org/Graphics/SVG/1.1/DTD/svg11.dtd">
<svg version="1.1" id="Grafica" role="img" aria-labelledby="title description" xmlns="http://www.w3.org/2000/svg" xmlns:xlink="http://www.w3.org/1999/xlink" x="0px" y="0px" width="640px" height="640px" viewBox="0 0 640 640" enable-background="new 0 0 640 640" xml:space="preserve">

	<title id="title">Grafica pubblicitaria progettazione e stampa a Trieste</title>
	<description id="description">TRACK Graphics di Trieste si occupa di progettazione di immagine coordinata e stampa di grafica pubblicitaria.</description>

	<g id="Tirature">
		<text transform="matrix(1 0 0 1 -420 248)" fill="#FFFFFF" font-family="'Raleway'" font-size="24">piccole</text>
		<text transform="matrix(1 0 0 1 -420 280)" fill="#FFFFFF" font-family="'Raleway'" font-size="24">tirature</text>
		<line fill="none" stroke="#FFFFFF" stroke-width="2" stroke-miterlimit="10" stroke-dasharray="10,10" x1="-468" y1="256" x2="-180" y2="256"/>
		<g>
			<path fill="#13B5EA" d="M-467.999,290C-486.747,290-502,274.748-502,256s15.253-34,34.001-34c18.747,0,33.999,15.252,33.999,34
				S-449.252,290-467.999,290z"/>
			<path fill="#FFFFFF" d="M-467.999,224c17.672,0,31.999,14.328,31.999,32c0,17.674-14.327,32-31.999,32
				C-485.673,288-500,273.674-500,256C-500,238.328-485.673,224-467.999,224 M-467.999,220C-487.85,220-504,236.149-504,256
				s16.15,36,36.001,36c19.85,0,35.999-16.149,35.999-36S-448.149,220-467.999,220L-467.999,220z"/>
		</g>
		<text transform="matrix(1 0 0 1 -484 268.8364)" fill="#FFFFFF" font-family="'FontAwesome'" font-size="31.9997"></text>
	</g>

	<g id="Digitale">
		<text transform="matrix(1 0 0 1 -420 504)" fill="#FFFFFF" font-family="'Raleway'" font-size="24">versione</text>
		<text transform="matrix(1 0 0 1 -420 536)" fill="#FFFFFF" font-family="'Raleway'" font-size="24">digitale</text>
		<line fill="none" stroke="#FFFFFF" stroke-width="2" stroke-miterlimit="10" stroke-dasharray="10,10" x1="-468" y1="511.998" x2="-124" y2="511.998"/>
		<g>
			<path fill="#13B5EA" d="M-467.999,545.998c-18.748,0-34.001-15.252-34.001-34s15.253-34,34.001-34
				c18.747,0,33.999,15.252,33.999,34S-449.252,545.998-467.999,545.998z"/>
			<path fill="#FFFFFF" d="M-467.999,479.998c17.672,0,31.999,14.328,31.999,32c0,17.674-14.327,32-31.999,32
				c-17.674,0-32.001-14.326-32.001-32C-500,494.326-485.673,479.998-467.999,479.998 M-467.999,475.998
				c-19.851,0-36.001,16.149-36.001,36s16.15,36,36.001,36c19.85,0,35.999-16.149,35.999-36S-448.149,475.998-467.999,475.998
				L-467.999,475.998z"/>
		</g>
		<text transform="matrix(1 0 0 1 -484 524.8359)" fill="#FFFFFF" font-family="'FontAwesome'" font-size="31.9997"></text>
	</g>

	<g id="Offerte">
		<text transform="matrix(1 0 0 1 -388.0005 376)" fill="#FFFFFF" font-family="'Raleway'" font-size="24">offerte</text>
		<text transform="matrix(1 0 0 1 -388 408)" fill="#FFFFFF" font-family="'Raleway'" font-size="24">speciali</text>
		<line fill="none" stroke="#FFFFFF" stroke-width="2" stroke-miterlimit="10" stroke-dasharray="10,10" x1="-452" y1="383.998" x2="-164" y2="383.998"/>
		<g>
			<path fill="#13B5EA" d="M-451.998,433.998c-27.571,0-50.002-22.43-50.002-50s22.431-50,50.002-50c27.569,0,49.998,22.43,49.998,50
				S-424.429,433.998-451.998,433.998z"/>
			<path fill="#FFFFFF" d="M-451.998,335.998c26.508,0,47.998,21.492,47.998,48c0,26.512-21.49,48-47.998,48
				c-26.512,0-48.002-21.488-48.002-48C-500,357.49-478.51,335.998-451.998,335.998 M-451.998,331.998
				c-28.674,0-52.002,23.327-52.002,52s23.328,52,52.002,52c28.672,0,51.998-23.327,51.998-52S-423.326,331.998-451.998,331.998
				L-451.998,331.998z"/>
		</g>
		<text transform="matrix(1 0 0 1 -476 403.1973)" fill="#FFFFFF" font-family="'FontAwesome'" font-size="47.9995"></text>
	</g>

	<g id="Design">
		<text transform="matrix(1 0 0 1 -388 120)" fill="#FFFFFF" font-family="'Raleway'" font-size="24">design</text>
		<text transform="matrix(1 0 0 1 -388 152)" fill="#FFFFFF" font-family="'Raleway'" font-size="24">e stampa</text>
		<line fill="none" stroke="#FFFFFF" stroke-width="2" stroke-miterlimit="10" stroke-dasharray="10,10" x1="-452" y1="128" x2="-196" y2="128"/>
		<g>
			<path fill="#13B5EA" d="M-451.998,178C-479.569,178-502,155.57-502,128s22.431-50,50.002-50C-424.429,78-402,100.43-402,128
				S-424.429,178-451.998,178z"/>
			<path fill="#FFFFFF" d="M-451.998,80C-425.49,80-404,101.492-404,128c0,26.511-21.49,48-47.998,48
				C-478.51,176-500,154.511-500,128C-500,101.492-478.51,80-451.998,80 M-451.998,76C-480.672,76-504,99.327-504,128
				s23.328,52,52.002,52c28.672,0,51.998-23.327,51.998-52S-423.326,76-451.998,76L-451.998,76z"/>
		</g>
		<text transform="matrix(1 0 0 1 -472.5708 147.2549)" fill="#FFFFFF" font-family="'FontAwesome'" font-size="47.9995"></text>
	</g>

	<g id="Idea">
		<path fill="#FFFFFF" d="M586.586-295.424c-19.715,21.715-45.715,52.287-48,82.859c8.285,4.856,13.428,14,13.428,23.429
			c0,6.857-2.57,13.429-7.143,18.286c4.572,4.857,7.143,11.429,7.143,18.286c0,9.429-4.857,18-12.857,23.144
			c2.286,4,3.715,8.857,3.715,13.429c0,18.572-14.572,27.43-31.144,27.43c-7.429,16.571-24.001,27.429-42.001,27.429
			s-34.572-10.857-42.001-27.429c-16.571,0-31.144-8.857-31.144-27.43c0-4.571,1.429-9.429,3.715-13.429
			c-8-5.144-12.857-13.715-12.857-23.144c0-6.857,2.57-13.429,7.143-18.286c-4.572-4.857-7.143-11.429-7.143-18.286
			c0-9.429,5.143-18.572,13.428-23.429c-2.285-30.572-28.285-61.145-48-82.859s-29.43-47.144-29.43-76.573
			c0-77.716,74.002-128.003,146.289-128.003s146.289,50.287,146.289,128.003C616.016-342.567,606.301-317.139,586.586-295.424z
			 M469.727-463.428c-51.715,0-109.717,34.286-109.717,91.431c0,18.286,7.429,37.43,19.43,51.43
			c5.428,6.286,11.714,12.286,17.428,18.857c20.287,24.286,37.43,52.858,40.287,85.145h65.145c2.857-32.286,20-60.858,40.287-85.145
			c5.714-6.571,12-12.571,17.428-18.857c12.001-14,19.43-33.144,19.43-51.43C579.443-429.142,521.441-463.428,469.727-463.428z
			 M524.585-362.854c-4.857,0-9.144-4.285-9.144-9.143c0-19.715-30.572-27.43-45.715-27.43c-4.857,0-9.143-4.285-9.143-9.143
			s4.285-9.143,9.143-9.143c26.572,0,64.002,14,64.002,45.715C533.729-367.14,529.442-362.854,524.585-362.854z"/>
	</g>

</svg>
