<?xml version="1.0" encoding="utf-8"?>
<!-- Generator: Adobe Illustrator 16.0.4, SVG Export Plug-In . SVG Version: 6.00 Build 0)  -->
<!DOCTYPE svg PUBLIC "-//W3C//DTD SVG 1.1//EN" "http://www.w3.org/Graphics/SVG/1.1/DTD/svg11.dtd">
<svg version="1.1" id="svg" xmlns="http://www.w3.org/2000/svg" xmlns:xlink="http://www.w3.org/1999/xlink" x="0px" y="0px"
	 width="720px" height="270px" viewBox="0 0 720 270" enable-background="new 0 0 720 270" xml:space="preserve">
<filter  height="105%" width="105%" y="0" x="0" id="ombra">
	<feOffset  result="offOut" in="SourceAlpha" dy="2" dx="2"></feOffset>
	<feGaussianBlur  result="blurOut" in="offOut" stdDeviation="2"></feGaussianBlur>
	<feBlend  in2="blurOut" in="SourceGraphic" mode="normal"></feBlend>
</filter>

<g id="norma" filter="url(#ombra)">
	<path id="n" fill="#FFFFFF" d="M150.02,203.379H100.62V126.42c0-6.76-1.521-11.655-4.551-14.69
		c-3.034-3.031-6.544-4.55-10.529-4.55c-4.16,0-8.58,1.82-13.261,5.46c-4.68,3.64-8.148,8.32-10.399,14.04v76.699h-49.4V66.62h44.46
		V86.9c4.852-7.451,11.655-13.13,20.41-17.03c8.75-3.9,19.11-5.85,31.07-5.85c9.359,0,16.77,1.69,22.229,5.07
		s9.62,7.585,12.48,12.61c2.859,5.03,4.721,10.4,5.59,16.12c0.865,5.72,1.3,10.92,1.3,15.6V203.379L150.02,203.379z"/>
	<path id="o" fill="#FFFFFF" d="M212.364,205.98c-12.309,0-23.1-1.951-32.368-5.853c-9.275-3.897-17.076-9.101-23.4-15.601
		c-6.33-6.5-11.096-14.038-14.3-22.618c-3.209-8.58-4.811-17.552-4.811-26.91c0-9.36,1.602-18.33,4.811-26.91
		c3.205-8.58,7.97-16.12,14.3-22.62c6.324-6.5,14.125-11.7,23.4-15.6c9.27-3.9,20.061-5.85,32.368-5.85
		c12.132,0,22.882,1.95,32.24,5.85c9.359,3.9,17.201,9.1,23.529,15.6c6.326,6.5,11.092,14.04,14.301,22.62
		c3.205,8.58,4.812,17.55,4.812,26.91c0,9.358-1.605,18.33-4.812,26.91c-3.209,8.58-7.975,16.118-14.301,22.618
		c-6.328,6.5-14.17,11.701-23.529,15.601C235.245,204.029,224.495,205.98,212.364,205.98z M188.185,135
		c0,9.189,2.25,16.379,6.76,21.58c4.507,5.199,10.312,7.799,17.42,7.799c7.105,0,12.91-2.6,17.421-7.799
		c4.506-5.201,6.76-12.391,6.76-21.58c0-9.186-2.254-16.38-6.76-21.58c-4.511-5.2-10.314-7.8-17.421-7.8
		c-7.108,0-12.913,2.6-17.42,7.8C190.435,118.62,188.185,125.814,188.185,135z"/>
	<path id="r" fill="#FFFFFF" d="M368.493,108.74c-9.533,0-18.199,1.04-26,3.12c-7.8,2.08-13.608,5.549-17.42,10.4v81.119h-49.398
		V66.62h45.238v26c4.852-9.186,10.876-16.25,18.07-21.19c7.19-4.94,14.95-7.41,23.271-7.41c3.291,0,5.371,0.089,6.239,0.26V108.74z"
		/>
	<path id="m" fill="#FFFFFF" d="M573.161,203.379h-49.399V126.42c0-6.76-1.346-11.655-4.029-14.69
		c-2.689-3.031-5.939-4.55-9.75-4.55c-3.989,0-8.189,1.82-12.61,5.46c-4.42,3.64-7.67,8.32-9.75,14.04v76.699h-49.399V126.42
		c0-6.76-1.344-11.655-4.029-14.69c-2.688-3.031-5.938-4.55-9.75-4.55c-3.989,0-8.189,1.82-12.609,5.46
		c-4.421,3.64-7.671,8.32-9.75,14.04v76.699h-49.399V66.62h44.46V86.9c4.851-7.451,11.524-13.13,20.02-17.03
		c8.49-3.9,18.546-5.85,30.16-5.85c5.545,0,10.399,0.65,14.561,1.95c4.16,1.3,7.756,3.08,10.79,5.33
		c3.03,2.255,5.46,4.77,7.279,7.54c1.82,2.775,3.25,5.72,4.29,8.84c4.852-7.45,11.48-13.26,19.891-17.42
		c8.404-4.16,17.979-6.24,28.729-6.24c9.011,0,16.16,1.69,21.45,5.07c5.285,3.38,9.315,7.585,12.09,12.61
		c2.771,5.03,4.591,10.4,5.46,16.12c0.865,5.72,1.3,10.92,1.3,15.6v89.959H573.161z"/>
	<path id="a" fill="#FFFFFF" d="M608.467,205.98c-6.762,0-13.09-1.131-18.98-3.381c-5.895-2.25-10.965-5.33-15.21-9.23
		c-4.249-3.9-7.585-8.535-10.01-13.91c-2.43-5.369-3.64-11.18-3.64-17.42c0-6.93,1.47-13.26,4.42-18.979
		c2.944-5.722,7.02-10.662,12.22-14.821c5.2-4.16,11.396-7.365,18.59-9.62c7.19-2.251,15.121-3.38,23.79-3.38
		c11.091,0,20.28,1.735,27.56,5.2v-4.16c0-6.411-1.863-11.18-5.59-14.3c-3.729-3.12-9.75-4.68-18.069-4.68
		c-7.801,0-14.994,1.259-21.579,3.77c-6.591,2.515-13.521,6.199-20.801,11.05l-14.301-30.68c18.025-11.611,38.565-17.42,61.62-17.42
		c21.84,0,38.65,4.854,50.44,14.56c11.784,9.709,17.68,24.269,17.68,43.68v26.521c0,4.68,0.689,7.93,2.08,9.75
		c1.386,1.82,3.811,2.904,7.28,3.25v41.6c-3.989,0.865-7.761,1.516-11.312,1.951c-3.555,0.43-6.719,0.65-9.489,0.65
		c-8.841,0-15.56-1.605-20.149-4.812c-4.595-3.205-7.585-7.93-8.97-14.17l-1.04-4.938c-6.069,7.799-13.091,13.737-21.062,17.809
		C625.972,203.939,617.478,205.98,608.467,205.98z M623.285,170.619c2.945,0,5.98-0.475,9.102-1.43
		c3.12-0.951,5.891-2.209,8.318-3.771c1.906-1.385,3.467-2.899,4.682-4.551c1.21-1.646,1.818-3.334,1.818-5.07V145.66
		c-2.948-1.041-6.153-1.906-9.618-2.6c-3.471-0.691-6.591-1.041-9.36-1.041c-6.069,0-11.095,1.475-15.08,4.42
		c-3.989,2.949-5.979,6.676-5.979,11.18c0,3.814,1.515,6.936,4.55,9.361C614.746,169.408,618.606,170.619,623.285,170.619z"/>
</g>
</svg>
