<?xml version="1.0" encoding="utf-8"?>
<!-- Generator: Adobe Illustrator 16.0.4, SVG Export Plug-In . SVG Version: 6.00 Build 0)  -->
<!DOCTYPE svg PUBLIC "-//W3C//DTD SVG 1.1//EN" "http://www.w3.org/Graphics/SVG/1.1/DTD/svg11.dtd">
<svg version="1.1" id="svg" xmlns="http://www.w3.org/2000/svg" xmlns:xlink="http://www.w3.org/1999/xlink" x="0px" y="0px"
	 width="720px" height="270px" viewBox="0 0 720 270" enable-background="new 0 0 720 270" xml:space="preserve">
<filter  height="105%" width="105%" y="0" x="0" id="ombra">
	<feOffset  result="offOut" in="SourceAlpha" dy="2" dx="2"></feOffset>
	<feGaussianBlur  result="blurOut" in="offOut" stdDeviation="2"></feGaussianBlur>
	<feBlend  in2="blurOut" in="SourceGraphic" mode="normal"></feBlend>
</filter>

<g id="paura" filter="url(#ombra)">
	<path id="p" fill="#FFFFFF" d="M114.678,185.712c-11.236,0-20.994-2.217-29.274-6.652s-14.688-10.891-19.221-19.368v86.049H10
		V27.217h48.791v23.361c5.517-8.474,12.318-14.979,20.403-19.517c8.081-4.532,18.038-6.801,29.866-6.801
		c10.248,0,19.812,2.024,28.683,6.062c8.871,4.043,16.458,9.61,22.769,16.708c6.307,7.097,11.283,15.575,14.933,25.43
		c3.646,9.86,5.471,20.505,5.471,31.935c0,11.635-1.678,22.429-5.028,32.38c-3.354,9.957-7.983,18.582-13.897,25.874
		c-5.914,7.295-12.914,12.966-20.994,17.003C132.91,183.689,124.14,185.712,114.678,185.712z M95.162,138.399
		c4.14,0,7.933-0.886,11.384-2.659c3.447-1.776,6.404-4.237,8.871-7.393c2.462-3.151,4.436-6.802,5.914-10.94
		c1.479-4.142,2.218-8.577,2.218-13.308c0-9.855-2.809-17.742-8.427-23.657c-5.619-5.914-13.062-8.871-22.326-8.871
		c-10.452,0-19.323,5.323-26.613,15.968v26.909c2.759,6.902,6.801,12.618,12.124,17.15
		C83.629,136.136,89.248,138.399,95.162,138.399z"/>
	<path id="a_1_" fill="#FFFFFF" d="M212.403,185.712c-7.688,0-14.886-1.283-21.586-3.844c-6.704-2.558-12.471-6.061-17.299-10.496
		c-4.833-4.436-8.625-9.708-11.384-15.82c-2.763-6.109-4.141-12.717-4.141-19.812c0-7.884,1.673-15.082,5.028-21.587
		c3.35-6.504,7.984-12.124,13.897-16.854c5.914-4.733,12.96-8.378,21.143-10.942c8.178-2.56,17.197-3.844,27.057-3.844
		c12.614,0,23.064,1.972,31.345,5.914v-4.731c0-7.291-2.121-12.716-6.359-16.264c-4.241-3.548-11.089-5.323-20.55-5.323
		c-8.871,0-17.053,1.432-24.543,4.288c-7.494,2.86-15.376,7.051-23.656,12.567l-16.264-34.892
		c20.501-13.206,43.861-19.812,70.081-19.812c24.839,0,43.958,5.521,57.366,16.559c13.403,11.042,20.108,27.603,20.108,49.678
		v30.161c0,5.323,0.786,9.02,2.365,11.089c1.575,2.07,4.335,3.304,8.279,3.696v47.312c-4.537,0.984-8.826,1.725-12.862,2.219
		c-4.043,0.49-7.642,0.738-10.794,0.738c-10.053,0-17.696-1.825-22.917-5.469c-5.226-3.646-8.625-9.019-10.201-16.116l-1.182-5.618
		c-6.903,8.871-14.888,15.627-23.952,20.256C232.312,183.394,222.652,185.712,212.403,185.712z M229.259,145.498
		c3.35,0,6.8-0.54,10.349-1.625c3.549-1.083,6.7-2.516,9.463-4.289c2.166-1.577,3.94-3.299,5.322-5.175
		c1.377-1.871,2.07-3.794,2.07-5.767V117.11c-3.355-1.183-7-2.167-10.941-2.957c-3.946-0.785-7.494-1.182-10.646-1.182
		c-6.903,0-12.618,1.677-17.15,5.027c-4.538,3.353-6.802,7.59-6.802,12.714c0,4.338,1.725,7.887,5.175,10.645
		C219.547,144.121,223.937,145.498,229.259,145.498z"/>
	<path id="u" fill="#FFFFFF" d="M357.032,185.712c-15.774,0-27.798-4.776-36.077-14.34c-8.279-9.561-12.42-23.509-12.42-41.843
		V27.217h56.184v89.598c0,6.903,1.524,12.227,4.584,15.969c3.054,3.746,7.244,5.616,12.567,5.616c4.333,0,8.769-0.982,13.307-2.956
		c4.532-1.967,9.064-6.308,13.603-13.009V27.217h56.184v93.441c0,5.323,0.785,9.02,2.364,11.089c1.576,2.07,4.335,3.304,8.279,3.696
		v47.312c-9.66,1.97-17.547,2.957-23.655,2.957c-19.123,0-30.161-7.192-33.118-21.585l-1.183-5.618
		c-7.295,9.66-15.969,16.609-26.022,20.848C381.574,183.593,370.042,185.712,357.032,185.712z"/>
	<path id="r" fill="#FFFFFF" d="M572.002,75.121c-10.844,0-20.699,1.183-29.57,3.548s-15.479,6.311-19.812,11.828v92.258h-56.184
		V27.217h51.454v29.57c5.515-10.446,12.367-18.481,20.55-24.099c8.178-5.618,17.003-8.427,26.466-8.427
		c3.742,0,6.107,0.102,7.097,0.296V75.121z"/>
	<path id="a" fill="#FFFFFF" d="M599.112,185.712c-7.687,0-14.886-1.283-21.585-3.844c-6.704-2.558-12.471-6.061-17.3-10.496
		c-4.832-4.436-8.625-9.708-11.384-15.82c-2.762-6.109-4.14-12.717-4.14-19.812c0-7.884,1.673-15.082,5.027-21.587
		c3.35-6.504,7.983-12.124,13.896-16.854c5.915-4.733,12.96-8.378,21.144-10.942c8.179-2.56,17.197-3.844,27.058-3.844
		c12.612,0,23.063,1.972,31.345,5.914v-4.731c0-7.291-2.122-12.716-6.359-16.264c-4.241-3.548-11.089-5.323-20.55-5.323
		c-8.871,0-17.054,1.432-24.544,4.288c-7.494,2.86-15.376,7.051-23.657,12.567L551.8,44.073
		c20.501-13.206,43.861-19.812,70.082-19.812c24.838,0,43.958,5.521,57.365,16.559c13.403,11.042,20.108,27.603,20.108,49.678
		v30.161c0,5.323,0.785,9.02,2.365,11.089c1.575,2.07,4.334,3.304,8.278,3.696v47.312c-4.536,0.984-8.824,1.725-12.861,2.219
		c-4.042,0.49-7.643,0.738-10.794,0.738c-10.054,0-17.696-1.825-22.917-5.469c-5.226-3.646-8.626-9.019-10.201-16.116l-1.182-5.618
		c-6.903,8.871-14.889,15.627-23.952,20.256C619.021,183.394,609.361,185.712,599.112,185.712z M615.967,145.498
		c3.351,0,6.801-0.54,10.351-1.625c3.549-1.083,6.699-2.516,9.463-4.289c2.165-1.577,3.939-3.299,5.321-5.175
		c1.378-1.871,2.071-3.794,2.071-5.767V117.11c-3.356-1.183-7-2.167-10.942-2.957c-3.946-0.785-7.493-1.182-10.646-1.182
		c-6.902,0-12.617,1.677-17.15,5.027c-4.538,3.353-6.802,7.59-6.802,12.714c0,4.338,1.724,7.887,5.175,10.645
		C606.256,144.121,610.645,145.498,615.967,145.498z"/>
</g>
</svg>
