<?xml version="1.0" encoding="utf-8"?>
<!-- Generator: Adobe Illustrator 16.0.4, SVG Export Plug-In . SVG Version: 6.00 Build 0)  -->
<!DOCTYPE svg PUBLIC "-//W3C//DTD SVG 1.1//EN" "http://www.w3.org/Graphics/SVG/1.1/DTD/svg11.dtd">
<svg version="1.1" id="svg" xmlns="http://www.w3.org/2000/svg" xmlns:xlink="http://www.w3.org/1999/xlink" x="0px" y="0px"
	 width="640px" height="640px" viewBox="0 0 640 640" enable-background="new 0 0 640 640" xml:space="preserve">
<g id="Antivirus">
	<text transform="matrix(1 0 0 1 -478.0007 184)" fill="#FFFFFF" font-family="'Raleway'" font-size="24">Antivirus</text>
	<line fill="none" x1="-564" y1="192" x2="-204" y2="192"/>
	<g>
		<path fill="#13B5EA" d="M-525.998,226c-18.75,0-34.002-15.252-34.002-34s15.252-34,34.002-34c18.746,0,33.998,15.252,33.998,34
			S-507.252,226-525.998,226z"/>
		<path fill="#FFFFFF" d="M-525.998,160c17.67,0,31.998,14.328,31.998,32c0,17.674-14.328,32-31.998,32
			C-543.673,224-558,209.674-558,192C-558,174.328-543.673,160-525.998,160 M-525.998,156C-545.85,156-562,172.149-562,192
			s16.148,36,36.002,36c19.85,0,35.998-16.149,35.998-36S-506.148,156-525.998,156L-525.998,156z"/>
	</g>
	<text transform="matrix(1 0 0 1 -540.8572 204.7979)" fill="#FFFFFF" font-family="'FontAwesome'" font-size="31.9997"></text>
	<text transform="matrix(1 0 0 1 -480.0007 216)" fill="#FFFFFF" font-family="'Raleway'" font-size="24">dedicato</text>
	<polyline fill="none" stroke="#FFFFFF" stroke-width="2" stroke-miterlimit="10" stroke-dasharray="10,10" points="-494,192 
		-334,192 -246,280 	"/>
</g>
<g id="Cryptolocker">
	<text transform="matrix(1 0 0 1 -395.9958 56)" fill="#FFFFFF" font-family="'Raleway'" font-size="24">Recupero dati</text>
	<text transform="matrix(1 0 0 1 -395.9958 88)" fill="#FFFFFF" font-family="'Raleway'" font-size="24">Cryptolocker</text>
	<polyline fill="none" stroke="#FFFFFF" stroke-width="2" stroke-miterlimit="10" stroke-dasharray="10,10" points="-460,64 
		-163.999,64 -74.995,151.001 	"/>
	<g>
		<path fill="#13B5EA" d="M-459.998,114C-487.57,114-510,91.57-510,64s22.43-50,50.002-50C-432.43,14-410,36.43-410,64
			S-432.43,114-459.998,114z"/>
		<path fill="#FFFFFF" d="M-459.998,16C-433.49,16-412,37.492-412,64c0,26.511-21.49,48-47.998,48C-486.51,112-508,90.511-508,64
			C-508,37.492-486.51,16-459.998,16 M-459.998,12C-488.672,12-512,35.327-512,64s23.328,52,52.002,52
			C-431.326,116-408,92.673-408,64S-431.326,12-459.998,12L-459.998,12z"/>
	</g>
	<text transform="matrix(1 0 0 1 -482.283 83.1973)" fill="#FFFFFF" font-family="'FontAwesome'" font-size="47.9995"></text>
</g>
<g id="Lucchetto">
	<path fill="#FFFFFF" d="M624-238.005v150.01C624-74.196,612.808-63,599-63H349.003c-13.8,0-25.007-11.196-25.007-24.995v-150.01
		c0-13.798,11.207-24.995,25.007-24.995h8.331v-83.33c0-64.318,52.341-116.663,116.675-116.663
		c64.312,0,116.651,52.345,116.651,116.663c0,9.117-7.536,16.666-16.652,16.666h-16.679c-9.116,0-16.652-7.548-16.652-16.666
		c0-36.718-29.956-66.665-66.668-66.665c-36.729,0-66.668,29.947-66.668,66.665V-263H599C612.808-263,624-251.803,624-238.005z"/>
</g>
<g id="Assistenza">
	<text transform="matrix(1 0 0 1 -478.0007 504)" fill="#FFFFFF" font-family="'Raleway'" font-size="24">Assistenza</text>
	<text transform="matrix(1 0 0 1 -478.0007 536)" fill="#FFFFFF" font-family="'Raleway'" font-size="24">tecnica</text>
	<g>
		<path fill="#13B5EA" d="M-525.998,546c-18.75,0-34.002-15.252-34.002-34s15.252-34,34.002-34c18.746,0,33.998,15.252,33.998,34
			S-507.252,546-525.998,546z"/>
		<path fill="#FFFFFF" d="M-525.998,480c17.67,0,31.998,14.328,31.998,32c0,17.674-14.328,32-31.998,32
			C-543.673,544-558,529.674-558,512C-558,494.328-543.673,480-525.998,480 M-525.998,476C-545.85,476-562,492.149-562,512
			s16.148,36,36.002,36c19.85,0,35.998-16.149,35.998-36S-506.148,476-525.998,476L-525.998,476z"/>
	</g>
	<text transform="matrix(1 0 0 1 -540.8572 524.7979)" fill="#FFFFFF" font-family="'FontAwesome'" font-size="31.9997"></text>
	<polyline fill="none" stroke="#FFFFFF" stroke-width="2" stroke-miterlimit="10" stroke-dasharray="10,10" points="-494,512 
		-332,512 -268,448 	"/>
</g>
<g id="Diagnosi">
	<text transform="matrix(1 0 0 1 -395.9958 376)" fill="#FFFFFF" font-family="'Raleway'" font-size="24">Diagnosi</text>
	<text transform="matrix(1 0 0 1 -395.9958 408)" fill="#FFFFFF" font-family="'Raleway'" font-size="24">gratuita</text>
	
		<line fill="none" stroke="#FFFFFF" stroke-width="2" stroke-miterlimit="10" stroke-dasharray="10,10" x1="-460" y1="384" x2="-147.998" y2="384"/>
	<g>
		<path fill="#13B5EA" d="M-459.998,434C-487.57,434-510,411.57-510,384s22.43-50,50.002-50C-432.43,334-410,356.43-410,384
			S-432.43,434-459.998,434z"/>
		<path fill="#FFFFFF" d="M-459.998,336C-433.49,336-412,357.492-412,384c0,26.511-21.49,48-47.998,48
			C-486.51,432-508,410.511-508,384C-508,357.492-486.51,336-459.998,336 M-459.998,332C-488.672,332-512,355.327-512,384
			s23.328,52,52.002,52c28.672,0,51.998-23.327,51.998-52S-431.326,332-459.998,332L-459.998,332z"/>
	</g>
	<text transform="matrix(1 0 0 1 -478.8533 403.1973)" fill="#FFFFFF" font-family="'FontAwesome'" font-size="47.9995"></text>
</g>
</svg>
