<?xml version="1.0" encoding="utf-8"?>
<!-- Generator: Adobe Illustrator 16.0.4, SVG Export Plug-In . SVG Version: 6.00 Build 0)  -->
<!DOCTYPE svg PUBLIC "-//W3C//DTD SVG 1.1//EN" "http://www.w3.org/Graphics/SVG/1.1/DTD/svg11.dtd">
<svg version="1.1" id="svg" xmlns="http://www.w3.org/2000/svg" xmlns:xlink="http://www.w3.org/1999/xlink" x="0px" y="0px"
	 width="720px" height="270px" viewBox="0 0 720 270" enable-background="new 0 0 720 270" xml:space="preserve">
<filter  height="105%" width="105%" y="0" x="0" id="ombra">
	<feOffset  result="offOut" in="SourceAlpha" dy="2" dx="2"></feOffset>
	<feGaussianBlur  result="blurOut" in="offOut" stdDeviation="2"></feGaussianBlur>
	<feBlend  in2="blurOut" in="SourceGraphic" mode="normal"></feBlend>
</filter>

<g id="relax" filter="url(#ombra)">
	<path id="r" fill="#FFFFFF" d="M131.225,133.638c-12.494,0-23.848,1.362-34.067,4.088c-10.222,2.726-17.833,7.271-22.826,13.627
		v106.293H9.6V78.446h59.279v34.069c6.355-12.036,14.25-21.293,23.678-27.766c9.422-6.473,19.589-9.71,30.492-9.71
		c4.312,0,7.037,0.117,8.176,0.341V133.638L131.225,133.638z"/>
	<path id="e" fill="#FFFFFF" d="M199.971,261.054c-15.671,0-29.64-2.44-41.905-7.321c-12.264-4.883-22.544-11.525-30.832-19.934
		c-8.294-8.398-14.596-18.056-18.907-28.958c-4.317-10.901-6.475-22.368-6.475-34.407c0-12.945,2.099-25.213,6.303-36.794
		c4.2-11.584,10.444-21.687,18.738-30.322c8.289-8.628,18.509-15.501,30.662-20.611c12.148-5.11,26.286-7.666,42.416-7.666
		c15.896,0,29.98,2.555,42.246,7.666c12.265,5.11,22.539,11.924,30.832,20.441c8.29,8.517,14.533,18.397,18.738,29.641
		c4.2,11.241,6.303,22.998,6.303,35.26c0,3.407-0.17,6.874-0.511,10.392c-0.342,3.524-0.74,6.644-1.193,9.369H170.672
		c0.681,9.539,4.199,16.411,10.561,20.611c6.356,4.205,13.287,6.303,20.782,6.303c7.038,0,13.681-1.587,19.93-4.771
		c6.245-3.179,10.392-7.604,12.437-13.285l54.85,15.671c-7.271,14.311-18.455,26.012-33.558,35.09
		C240.566,256.516,221.998,261.054,199.971,261.054z M228.589,148.969c-1.139-8.629-4.317-15.443-9.539-20.441
		c-5.229-4.994-11.924-7.496-20.101-7.496s-14.879,2.502-20.102,7.496c-5.228,4.998-8.406,11.812-9.539,20.441H228.589z"/>
	<path id="l" fill="#FFFFFF" d="M280.881,8.946h64.73v177.5c0,13.628,5.562,20.44,16.693,20.44c2.727,0,5.676-0.452,8.857-1.364
		c3.18-0.903,6.134-2.154,8.857-3.746l8.177,47.697c-7.724,3.635-16.411,6.471-26.062,8.518c-9.657,2.043-18.796,3.062-27.425,3.062
		c-17.265,0-30.55-4.428-39.861-13.283c-9.315-8.86-13.969-21.689-13.969-38.5L280.881,8.946L280.881,8.946z"/>
	<path id="a" fill="#FFFFFF" d="M418.448,261.054c-8.855,0-17.15-1.479-24.87-4.428c-7.724-2.948-14.366-6.983-19.931-12.094
		c-5.567-5.11-9.938-11.187-13.116-18.229c-3.183-7.038-4.77-14.649-4.77-22.825c0-9.082,1.928-17.377,5.792-24.871
		c3.858-7.493,9.198-13.967,16.012-19.418c6.813-5.453,14.932-9.651,24.36-12.605c9.422-2.949,19.812-4.43,31.173-4.43
		c14.532,0,26.573,2.272,36.113,6.813v-5.45c0-8.399-2.444-14.649-7.326-18.738c-4.886-4.088-12.776-6.133-23.677-6.133
		c-10.222,0-19.647,1.65-28.278,4.94c-8.634,3.295-17.715,8.124-27.255,14.479l-18.737-40.2
		c23.62-15.215,50.533-22.827,80.743-22.827c28.617,0,50.646,6.361,66.093,19.079c15.442,12.723,23.168,31.801,23.168,57.235v34.748
		c0,6.135,0.905,10.394,2.726,12.776c1.814,2.386,4.993,3.806,9.538,4.259v54.51c-5.228,1.136-10.168,1.986-14.818,2.556
		c-4.657,0.565-8.806,0.852-12.438,0.852c-11.582,0-20.388-2.103-26.401-6.301c-6.021-4.2-9.938-10.392-11.753-18.567l-1.362-6.474
		c-7.953,10.222-17.152,18.004-27.598,23.337C441.387,258.383,430.257,261.054,418.448,261.054z M437.868,214.723
		c3.859,0,7.835-0.623,11.925-1.873c4.089-1.248,7.719-2.897,10.901-4.94c2.495-1.816,4.54-3.802,6.132-5.962
		c1.587-2.156,2.387-4.372,2.387-6.646v-13.286c-3.866-1.361-8.064-2.496-12.606-3.406c-4.546-0.904-8.634-1.362-12.265-1.362
		c-7.953,0-14.538,1.935-19.761,5.793c-5.229,3.862-7.837,8.745-7.837,14.647c0,4.998,1.986,9.086,5.962,12.265
		C426.68,213.135,431.737,214.723,437.868,214.723z"/>
	<path id="x" fill="#FFFFFF" d="M584.228,78.446l25.552,43.949l3.407,7.154l3.406-7.154l25.552-43.949h65.752l-59.961,89.601
		l61.664,89.602h-65.752L616.252,213.7l-3.065-6.813l-3.067,6.813l-27.595,43.946h-65.754l61.665-89.601l-59.961-89.601
		L584.228,78.446L584.228,78.446z"/>
</g>
</svg>
