<?xml version="1.0" encoding="utf-8"?>
<!-- Generator: Adobe Illustrator 16.0.4, SVG Export Plug-In . SVG Version: 6.00 Build 0)  -->
<!DOCTYPE svg PUBLIC "-//W3C//DTD SVG 1.1//EN" "http://www.w3.org/Graphics/SVG/1.1/DTD/svg11.dtd">
<svg version="1.1" id="svg" xmlns="http://www.w3.org/2000/svg" xmlns:xlink="http://www.w3.org/1999/xlink" x="0px" y="0px"
	 width="720px" height="270px" viewBox="0 0 720 270" enable-background="new 0 0 720 270" xml:space="preserve">
<filter  height="105%" width="105%" y="0" x="0" id="ombra">
	<feOffset  result="offOut" in="SourceAlpha" dy="2" dx="2"></feOffset>
	<feGaussianBlur  result="blurOut" in="offOut" stdDeviation="2"></feGaussianBlur>
	<feBlend  in2="blurOut" in="SourceGraphic" mode="normal"></feBlend>
</filter>

<g id="secco" filter="url(#ombra)">
	<path id="s" fill="#FFFFFF" d="M76.548,215.773c-13.585,0-26.875-2.215-39.87-6.646c-12.995-4.43-24.024-10.876-33.078-19.343
		l19.197-33.668c9.645,6.496,18.947,11.518,27.909,15.062c8.957,3.545,17.176,5.313,24.661,5.313c7.871,0,11.812-2.459,11.812-7.384
		c0-2.754-1.528-5.116-4.578-7.088c-3.055-1.965-9.008-4.231-17.868-6.793c-11.028-3.146-20.229-6.248-27.613-9.301
		s-13.392-6.352-18.016-9.896c-4.628-3.543-7.928-7.479-9.894-11.813c-1.971-4.328-2.954-9.45-2.954-15.355
		c0-7.873,1.574-15.159,4.726-21.855c3.147-6.691,7.531-12.5,13.144-17.424c5.61-4.919,12.302-8.712,20.083-11.371
		c7.774-2.658,16.29-3.986,25.546-3.986c11.417,0,22.298,1.477,32.635,4.43c10.336,2.954,20.72,8.962,31.158,18.015l-21.264,33.669
		c-9.65-6.299-17.721-10.78-24.219-13.438c-6.497-2.658-12.603-3.987-18.311-3.987c-3.351,0-6.105,0.642-8.271,1.92
		c-2.169,1.283-3.249,3.3-3.249,6.055c0,2.954,1.573,5.367,4.726,7.236c3.146,1.873,9.35,3.986,18.605,6.349
		c11.224,2.954,20.674,6.055,28.354,9.304c7.678,3.248,13.83,6.792,18.458,10.631c4.624,3.838,7.923,8.174,9.893,12.997
		c1.966,4.824,2.954,10.385,2.954,16.684c0,8.076-1.477,15.262-4.43,21.561c-2.953,6.304-7.236,11.718-12.847,16.244
		c-5.612,4.531-12.404,7.974-20.379,10.336C95.597,214.594,86.589,215.773,76.548,215.773z"/>
	<path id="e" fill="#FFFFFF" d="M202.92,215.773c-13.585,0-25.694-2.117-36.327-6.349c-10.632-4.231-19.543-9.989-26.728-17.278
		c-7.19-7.281-12.653-15.652-16.392-25.104c-3.743-9.449-5.612-19.39-5.612-29.828c0-11.221,1.818-21.854,5.465-31.896
		c3.641-10.042,9.054-18.8,16.243-26.286c7.186-7.48,16.046-13.438,26.58-17.868c10.531-4.43,22.787-6.645,36.771-6.645
		c13.779,0,25.99,2.215,36.621,6.645c10.634,4.43,19.54,10.336,26.728,17.72c7.188,7.383,12.599,15.948,16.244,25.695
		c3.643,9.746,5.465,19.936,5.465,30.567c0,2.954-0.146,5.959-0.443,9.006c-0.295,3.057-0.641,5.76-1.032,8.123H177.521
		c0.59,8.27,3.641,14.227,9.155,17.867c5.51,3.646,11.519,5.465,18.016,5.465c6.102,0,11.86-1.375,17.276-4.138
		c5.414-2.754,9.01-6.592,10.781-11.516l47.548,13.584c-6.302,12.403-15.998,22.549-29.089,30.42
		C238.111,211.838,222.014,215.773,202.92,215.773z M227.728,118.609c-0.985-7.481-3.741-13.387-8.269-17.72
		c-4.531-4.329-10.337-6.498-17.425-6.498c-7.089,0-12.898,2.169-17.426,6.498c-4.531,4.333-7.287,10.239-8.27,17.72H227.728z"/>
	<path id="c_1_" fill="#FFFFFF" d="M264.85,135.148c0-10.631,1.869-20.821,5.611-30.567c3.738-9.747,9.202-18.312,16.392-25.695
		c7.186-7.384,16.095-13.29,26.728-17.72c10.634-4.43,22.839-6.645,36.622-6.645c18.903,0,34.702,3.941,47.402,11.813
		c12.699,7.877,22.196,18.016,28.5,30.419l-54.637,16.54c-5.316-7.679-12.506-11.519-21.561-11.519
		c-7.679,0-14.177,2.907-19.491,8.713c-5.317,5.809-7.976,14.029-7.976,24.66c0,10.63,2.658,18.856,7.976,24.662
		c5.314,5.811,11.812,8.711,19.491,8.711c9.054,0,16.243-3.838,21.561-11.517l54.637,16.537c-6.304,12.403-15.801,22.549-28.5,30.42
		c-12.7,7.877-28.499,11.812-47.402,11.812c-13.783,0-25.988-2.215-36.622-6.645c-10.633-4.43-19.542-10.336-26.728-17.721
		c-7.189-7.383-12.653-15.945-16.392-25.693C266.718,155.969,264.85,145.779,264.85,135.148z"/>
	<path id="c" fill="#FFFFFF" d="M399.139,135.148c0-10.631,1.868-20.821,5.609-30.567c3.738-9.747,9.202-18.312,16.394-25.695
		c7.185-7.384,16.095-13.29,26.728-17.72s22.838-6.645,36.621-6.645c18.902,0,34.702,3.941,47.402,11.813
		c12.699,7.877,22.196,18.016,28.5,30.419l-54.638,16.54c-5.315-7.679-12.507-11.519-21.56-11.519
		c-7.68,0-14.178,2.907-19.493,8.713c-5.315,5.809-7.975,14.029-7.975,24.66c0,10.63,2.658,18.856,7.975,24.662
		c5.315,5.811,11.813,8.711,19.493,8.711c9.053,0,16.243-3.838,21.56-11.517l54.638,16.537c-6.304,12.403-15.801,22.549-28.5,30.42
		c-12.7,7.877-28.5,11.812-47.402,11.812c-13.783,0-25.988-2.215-36.621-6.645s-19.543-10.336-26.728-17.721
		c-7.19-7.383-12.654-15.945-16.394-25.693C401.007,155.969,399.139,145.779,399.139,135.148z"/>
	<path id="o" fill="#FFFFFF" d="M618.544,215.773c-13.982,0-26.24-2.215-36.771-6.646c-10.535-4.43-19.396-10.336-26.58-17.721
		c-7.189-7.384-12.603-15.945-16.243-25.693c-3.646-9.746-5.464-19.937-5.464-30.567c0-10.631,1.818-20.821,5.464-30.567
		c3.642-9.747,9.054-18.312,16.243-25.695c7.186-7.384,16.045-13.29,26.58-17.72c10.53-4.43,22.788-6.645,36.771-6.645
		c13.777,0,25.988,2.215,36.62,6.645c10.634,4.43,19.539,10.336,26.729,17.72c7.186,7.383,12.598,15.948,16.243,25.695
		c3.642,9.746,5.464,19.936,5.464,30.567c0,10.63-1.822,20.821-5.464,30.567c-3.646,9.748-9.059,18.312-16.243,25.693
		c-7.188,7.385-16.095,13.291-26.729,17.721C644.532,213.559,632.322,215.773,618.544,215.773z M591.075,135.148
		c0,10.438,2.559,18.606,7.681,24.512c5.116,5.906,11.712,8.859,19.788,8.859c8.068,0,14.663-2.953,19.785-8.859
		c5.118-5.906,7.681-14.074,7.681-24.512c0-10.434-2.562-18.606-7.681-24.513c-5.122-5.907-11.717-8.86-19.785-8.86
		c-8.076,0-14.672,2.953-19.788,8.86C593.634,116.542,591.075,124.714,591.075,135.148z"/>
</g>
</svg>
