<?xml version="1.0" encoding="utf-8"?>
<!-- Generator: Adobe Illustrator 16.0.4, SVG Export Plug-In . SVG Version: 6.00 Build 0)  -->
<!DOCTYPE svg PUBLIC "-//W3C//DTD SVG 1.1//EN" "http://www.w3.org/Graphics/SVG/1.1/DTD/svg11.dtd">
<svg version="1.1" id="svg" xmlns="http://www.w3.org/2000/svg" xmlns:xlink="http://www.w3.org/1999/xlink" x="0px" y="0px"
	 width="720px" height="270px" viewBox="0 0 720 270" enable-background="new 0 0 720 270" xml:space="preserve">
<filter  height="105%" width="105%" y="0" x="0" id="ombra">
	<feOffset  result="offOut" in="SourceAlpha" dy="2" dx="2"></feOffset>
	<feGaussianBlur  result="blurOut" in="offOut" stdDeviation="2"></feGaussianBlur>
	<feBlend  in2="blurOut" in="SourceGraphic" mode="normal"></feBlend>
</filter>

<g id="serve" filter="url(#ombra)">
	<path id="s" fill="#FFFFFF" d="M82.039,221.854c-14.608,0-28.899-2.381-42.872-7.145c-13.974-4.764-25.832-11.695-35.567-20.801
		l20.643-36.201c10.369,6.984,20.374,12.385,30.01,16.195c9.631,3.812,18.469,5.717,26.517,5.717c8.465,0,12.703-2.646,12.703-7.939
		c0-2.963-1.643-5.502-4.922-7.621c-3.285-2.115-9.687-4.553-19.213-7.307c-11.859-3.383-21.754-6.717-29.693-10
		c-7.938-3.281-14.398-6.83-19.371-10.641c-4.977-3.811-8.523-8.042-10.639-12.703c-2.119-4.653-3.176-10.161-3.176-16.512
		c0-8.466,1.691-16.3,5.081-23.5c3.384-7.195,8.098-13.442,14.132-18.736c6.033-5.289,13.229-9.368,21.595-12.227
		c8.361-2.858,17.517-4.287,27.469-4.287c12.276,0,23.978,1.588,35.092,4.764c11.114,3.175,22.278,9.636,33.503,19.371
		l-22.865,36.203c-10.376-6.773-19.054-11.591-26.041-14.449c-6.986-2.858-13.551-4.288-19.689-4.288
		c-3.602,0-6.563,0.69-8.892,2.065c-2.332,1.379-3.493,3.548-3.493,6.51c0,3.176,1.691,5.771,5.081,7.78
		c3.384,2.014,10.053,4.287,20.007,6.827c12.067,3.176,22.229,6.51,30.487,10.005c8.256,3.492,14.871,7.303,19.848,11.431
		c4.973,4.127,8.521,8.789,10.639,13.975c2.113,5.188,3.176,11.166,3.176,17.939c0,8.684-1.588,16.41-4.765,23.184
		c-3.176,6.777-7.779,12.6-13.812,17.467c-6.035,4.873-13.338,8.572-21.913,11.115C102.522,220.586,92.836,221.854,82.039,221.854z"
		/>
	<path id="e_1_" fill="#FFFFFF" d="M217.923,221.854c-14.607,0-27.628-2.274-39.062-6.826
		c-11.432-4.551-21.014-10.741-28.738-18.577c-7.731-7.83-13.605-16.83-17.625-26.994c-4.024-10.16-6.034-20.851-6.034-32.072
		c0-12.067,1.956-23.5,5.875-34.298c3.915-10.797,9.735-20.215,17.466-28.264c7.726-8.043,17.253-14.45,28.581-19.213
		c11.324-4.764,24.502-7.146,39.537-7.146c14.815,0,27.947,2.382,39.378,7.146c11.434,4.763,21.011,11.115,28.739,19.054
		c7.728,7.939,13.546,17.149,17.466,27.629c3.917,10.479,5.876,21.437,5.876,32.868c0,3.175-0.158,6.408-0.479,9.685
		c-0.315,3.285-0.688,6.193-1.109,8.734H190.612c0.636,8.894,3.915,15.297,9.845,19.213c5.925,3.92,12.386,5.875,19.372,5.875
		c6.56,0,12.752-1.479,18.575-4.447c5.821-2.961,9.688-7.09,11.594-12.383l51.127,14.606c-6.776,13.339-17.203,24.244-31.279,32.709
		C255.763,217.623,238.455,221.854,217.923,221.854z M244.598,117.375c-1.061-8.043-4.021-14.395-8.891-19.054
		c-4.872-4.655-11.115-6.987-18.737-6.987s-13.869,2.332-18.736,6.987c-4.873,4.659-7.835,11.01-8.892,19.054H244.598z"/>
	<path id="r" fill="#FFFFFF" d="M407.285,103.085c-11.646,0-22.229,1.27-31.757,3.811c-9.526,2.541-16.623,6.777-21.276,12.703
		v99.079h-60.338V51.639h55.258v31.757c5.923-11.219,13.281-19.848,22.069-25.881c8.782-6.034,18.261-9.051,28.423-9.051
		c4.02,0,6.56,0.109,7.621,0.318V103.085z"/>
	<path id="v" fill="#FFFFFF" d="M435.799,218.678L379.591,51.639h61.925l29.852,119.725l30.169-119.725h56.21l-56.21,167.039
		H435.799z"/>
	<path id="e" fill="#FFFFFF" d="M612.142,221.854c-14.608,0-27.629-2.274-39.062-6.826c-11.433-4.551-21.015-10.741-28.738-18.577
		c-7.731-7.83-13.606-16.83-17.626-26.994c-4.024-10.16-6.033-20.851-6.033-32.072c0-12.067,1.955-23.5,5.875-34.298
		c3.915-10.797,9.734-20.215,17.466-28.264c7.726-8.043,17.253-14.45,28.581-19.213c11.323-4.764,24.503-7.146,39.538-7.146
		c14.815,0,27.945,2.382,39.378,7.146c11.433,4.763,21.009,11.115,28.739,19.054c7.727,7.939,13.546,17.149,17.466,27.629
		c3.915,10.479,5.875,21.437,5.875,32.868c0,3.175-0.158,6.408-0.477,9.685c-0.316,3.285-0.689,6.193-1.111,8.734H584.829
		c0.636,8.894,3.916,15.297,9.846,19.213c5.924,3.92,12.386,5.875,19.371,5.875c6.561,0,12.752-1.479,18.577-4.447
		c5.82-2.961,9.688-7.09,11.592-12.383l51.128,14.606c-6.777,13.339-17.202,24.244-31.28,32.709
		C649.981,217.623,632.673,221.854,612.142,221.854z M638.816,117.375c-1.062-8.043-4.022-14.395-8.893-19.054
		c-4.872-4.655-11.115-6.987-18.736-6.987s-13.868,2.332-18.736,6.987c-4.871,4.659-7.835,11.01-8.891,19.054H638.816z"/>
</g>
</svg>
