<?xml version="1.0" encoding="utf-8"?>
<!-- Generator: Adobe Illustrator 16.0.4, SVG Export Plug-In . SVG Version: 6.00 Build 0)  -->
<!DOCTYPE svg PUBLIC "-//W3C//DTD SVG 1.1//EN" "http://www.w3.org/Graphics/SVG/1.1/DTD/svg11.dtd">
<svg version="1.1" id="svg" xmlns="http://www.w3.org/2000/svg" xmlns:xlink="http://www.w3.org/1999/xlink" x="0px" y="0px"
	 width="720px" height="270px" viewBox="0 0 720 270" enable-background="new 0 0 720 270" xml:space="preserve">

<filter  height="105%" width="105%" y="0" x="0" id="ombra">
	<feOffset  result="offOut" in="SourceAlpha" dy="2" dx="2"></feOffset>
	<feGaussianBlur  result="blurOut" in="offOut" stdDeviation="2"></feGaussianBlur>
	<feBlend  in2="blurOut" in="SourceGraphic" mode="normal"></feBlend>
</filter>

<g id="uomo" filter="url(#ombra)">
	<path id="o_1_" fill="#FFFFFF" d="M624.658,214.568c-13.8,0-25.896-2.187-36.288-6.559c-10.396-4.371-19.142-10.201-26.23-17.486
		c-7.097-7.287-12.438-15.737-16.031-25.357c-3.598-9.618-5.392-19.674-5.392-30.166c0-10.491,1.794-20.547,5.392-30.165
		c3.594-9.62,8.937-18.071,16.031-25.358c7.09-7.287,15.834-13.116,26.23-17.488c10.393-4.372,22.488-6.558,36.288-6.558
		c13.599,0,25.648,2.186,36.142,6.558c10.493,4.372,19.282,10.201,26.377,17.488c7.092,7.287,12.433,15.738,16.03,25.358
		c3.594,9.618,5.393,19.674,5.393,30.165c0,10.492-1.799,20.548-5.393,30.166c-3.599,9.62-8.938,18.07-16.03,25.357
		c-7.095,7.285-15.884,13.115-26.377,17.486C650.308,212.383,638.257,214.568,624.658,214.568z M597.552,135
		c0,10.301,2.522,18.361,7.578,24.191c5.051,5.828,11.56,8.742,19.528,8.742c7.964,0,14.473-2.914,19.526-8.742
		c5.051-5.83,7.579-13.892,7.579-24.191c0-10.297-2.528-18.361-7.579-24.191c-5.055-5.829-11.562-8.744-19.526-8.744
		c-7.97,0-14.479,2.915-19.528,8.744C600.074,116.639,597.552,124.703,597.552,135z"/>
	<path id="m" fill="#FFFFFF" d="M554.769,211.654h-55.378v-86.272c0-7.578-1.507-13.066-4.52-16.468
		c-3.014-3.397-6.656-5.1-10.93-5.1c-4.472,0-9.181,2.039-14.135,6.121c-4.956,4.081-8.6,9.327-10.932,15.737v85.982h-55.378
		v-86.272c0-7.578-1.508-13.066-4.518-16.468c-3.015-3.397-6.657-5.1-10.931-5.1c-4.472,0-9.181,2.039-14.137,6.121
		c-4.953,4.081-8.598,9.327-10.93,15.737v85.982h-55.378V58.346h49.841V81.08c5.438-8.352,12.92-14.719,22.444-19.091
		c9.518-4.372,20.789-6.558,33.81-6.558c6.217,0,11.658,0.729,16.32,2.186c4.664,1.458,8.694,3.453,12.097,5.974
		c3.397,2.527,6.12,5.347,8.161,8.454c2.041,3.109,3.645,6.412,4.81,9.91c5.438-8.353,12.869-14.865,22.297-19.529
		c9.423-4.664,20.157-6.995,32.207-6.995c10.101,0,18.116,1.894,24.046,5.684c5.925,3.789,10.441,8.502,13.553,14.135
		c3.105,5.639,5.146,11.659,6.122,18.071c0.968,6.413,1.456,12.242,1.456,17.488L554.769,211.654L554.769,211.654z"/>
	<path id="o" fill="#FFFFFF" d="M236.637,214.568c-13.799,0-25.896-2.187-36.287-6.559c-10.396-4.371-19.141-10.201-26.231-17.486
		c-7.097-7.287-12.438-15.737-16.031-25.357c-3.599-9.618-5.393-19.674-5.393-30.166c0-10.491,1.794-20.547,5.393-30.165
		c3.594-9.62,8.935-18.071,16.031-25.358c7.091-7.287,15.834-13.116,26.231-17.488c10.392-4.372,22.488-6.558,36.287-6.558
		c13.6,0,25.648,2.186,36.143,6.558c10.491,4.372,19.281,10.201,26.376,17.488c7.091,7.287,12.434,15.738,16.03,25.358
		c3.592,9.618,5.392,19.674,5.392,30.165c0,10.492-1.799,20.548-5.392,30.166c-3.598,9.62-8.939,18.07-16.03,25.357
		c-7.096,7.285-15.885,13.115-26.376,17.486C262.285,212.383,250.236,214.568,236.637,214.568z M209.531,135
		c0,10.301,2.522,18.361,7.577,24.191c5.054,5.828,11.56,8.742,19.529,8.742c7.964,0,14.474-2.914,19.529-8.742
		c5.049-5.83,7.577-13.892,7.577-24.191c0-10.297-2.527-18.361-7.577-24.191c-5.056-5.829-11.565-8.744-19.529-8.744
		c-7.97,0-14.476,2.915-19.529,8.744C212.053,116.639,209.531,124.703,209.531,135z"/>
	<path id="u" fill="#FFFFFF" d="M56.4,214.568c-15.547,0-27.396-4.707-35.559-14.135c-8.16-9.422-12.241-23.17-12.241-41.242V58.346
		h55.378v88.312c0,6.805,1.503,12.052,4.519,15.74c3.01,3.69,7.141,5.535,12.387,5.535c4.271,0,8.644-0.969,13.116-2.914
		c4.467-1.938,8.935-6.216,13.406-12.822V58.346h55.379v92.101c0,5.248,0.773,8.892,2.332,10.931
		c1.553,2.041,4.271,3.256,8.16,3.644v46.635c-9.522,1.941-17.296,2.914-23.316,2.914c-18.851,0-29.729-7.09-32.645-21.275
		l-1.167-5.538c-7.19,9.522-15.738,16.372-25.648,20.55C80.592,212.479,69.225,214.568,56.4,214.568z"/>
</g>
</svg>
