<?xml version="1.0" encoding="utf-8"?>
<!-- Generator: Adobe Illustrator 16.0.4, SVG Export Plug-In . SVG Version: 6.00 Build 0)  -->
<!DOCTYPE svg PUBLIC "-//W3C//DTD SVG 1.1//EN" "http://www.w3.org/Graphics/SVG/1.1/DTD/svg11.dtd">
<svg version="1.1" id="Vendita" role="img" aria-labelledby="title description" xmlns="http://www.w3.org/2000/svg" xmlns:xlink="http://www.w3.org/1999/xlink" x="0px" y="0px" width="640px" height="640px" viewBox="0 0 640 640" enable-background="new 0 0 640 640" xml:space="preserve">

	<title id="title">Vendita computer personalizzati e stampanti a Trieste</title>
	<description id="description">TRACK Graphics Trieste si occupa di consulenza informatica, vendita di computer personalizzati e assemblati con cura, notebook selezionati delle migliori marche, stampanti inkjet, laser a colori e multifunzione.</description>
	
	<g id="Cartucce">
		<line fill="none" stroke="#FFFFFF" stroke-width="2" stroke-miterlimit="10" stroke-dasharray="10,10" x1="-446.003" y1="512.203" x2="-86" y2="512.203"/>
		<g>
			<path fill="#13B5EA" d="M-446.002,546.203c-18.748,0-34.001-15.252-34.001-34s15.253-34,34.001-34
				c18.747,0,33.999,15.252,33.999,34S-427.255,546.203-446.002,546.203z"/>
			<path fill="#FFFFFF" d="M-446.002,480.203c17.672,0,31.999,14.328,31.999,32c0,17.674-14.327,32-31.999,32
				c-17.674,0-32.001-14.326-32.001-32C-478.003,494.531-463.676,480.203-446.002,480.203 M-446.002,476.203
				c-19.851,0-36.001,16.147-36.001,36c0,19.851,16.15,36,36.001,36c19.85,0,35.999-16.149,35.999-36
				C-410.003,492.352-426.152,476.203-446.002,476.203L-446.002,476.203z"/>
		</g>
		<text transform="matrix(1 0 0 1 -455.1426 525.001)" fill="#FFFFFF" font-family="'FontAwesome'" font-size="31.9997"></text>
		<text transform="matrix(1 0 0 1 -397.999 536.2031)" fill="#FFFFFF" font-family="'Raleway'" font-size="24">toner compatibili</text>
		<text transform="matrix(1 0 0 1 -397.999 504.2031)" fill="#FFFFFF" font-family="'Raleway'" font-size="24">cartucce e</text>
	</g>

	<g id="Stampanti">
		<polyline fill="none" stroke="#FFFFFF" stroke-width="2" stroke-miterlimit="10" stroke-dasharray="10,10" points="
			-446.003,384.203 -190.003,384.203 -5.997,196.203 	"/>
		<g>
			<path fill="#13B5EA" d="M-446.002,434.203c-27.571,0-50.001-22.43-50.001-50s22.431-50,50.001-50c27.569,0,49.999,22.43,49.999,50
				S-418.432,434.203-446.002,434.203z"/>
			<path fill="#FFFFFF" d="M-446.002,336.203c26.508,0,47.999,21.492,47.999,48c0,26.511-21.491,48-47.999,48
				c-26.511,0-48.001-21.489-48.001-48C-494.003,357.695-472.512,336.203-446.002,336.203 M-446.002,332.203
				c-28.674,0-52.001,23.326-52.001,52c0,28.673,23.328,52,52.001,52c28.672,0,51.999-23.327,51.999-52
				C-394.003,355.529-417.33,332.203-446.002,332.203L-446.002,332.203z"/>
		</g>
		<text transform="matrix(1 0 0 1 -468.2852 403.4004)" fill="#FFFFFF" font-family="'FontAwesome'" font-size="47.9995"></text>
		<text transform="matrix(1 0 0 1 -381.999 376.2031)" fill="#FFFFFF" font-family="'Raleway'" font-size="24">stampanti e</text>
		<text transform="matrix(1 0 0 1 -381.999 408.2031)" fill="#FFFFFF" font-family="'Raleway'" font-size="24">multifunzione</text>
	</g>
	
	<g id="Notebook">
		<line fill="none" stroke="#FFFFFF" stroke-width="2" stroke-miterlimit="10" stroke-dasharray="10,10" x1="-446.003" y1="192.203" x2="-86" y2="192.203"/>
		<g>
			<path fill="#13B5EA" d="M-446.002,226.203c-18.748,0-34.001-15.252-34.001-34s15.253-34,34.001-34
				c18.747,0,33.999,15.252,33.999,34S-427.255,226.203-446.002,226.203z"/>
			<path fill="#FFFFFF" d="M-446.002,160.203c17.672,0,31.999,14.328,31.999,32c0,17.674-14.327,32-31.999,32
				c-17.674,0-32.001-14.326-32.001-32C-478.003,174.531-463.676,160.203-446.002,160.203 M-446.002,156.203
				c-19.851,0-36.001,16.149-36.001,36s16.15,36,36.001,36c19.85,0,35.999-16.149,35.999-36S-426.152,156.203-446.002,156.203
				L-446.002,156.203z"/>
		</g>
		<text transform="matrix(1 0 0 1 -463.1426 205.001)" fill="#FFFFFF" font-family="'FontAwesome'" font-size="31.9997"></text>
		<text transform="matrix(1 0 0 1 -397.999 184.2031)" fill="#FFFFFF" font-family="'Raleway'" font-size="24">notebook</text>
	</g>
	
	<g id="Computer">
		<polyline fill="none" stroke="#FFFFFF" stroke-width="2" stroke-miterlimit="10" stroke-dasharray="10,10" points="
			-446.003,64.203 -254.003,64.203 -166.002,152.203 	"/>
		<g>
			<path fill="#13B5EA" d="M-446.002,114.203c-27.571,0-50.001-22.43-50.001-50c0-27.57,22.431-50,50.001-50
				c27.569,0,49.999,22.43,49.999,50C-396.003,91.773-418.432,114.203-446.002,114.203z"/>
			<path fill="#FFFFFF" d="M-446.002,16.203c26.508,0,47.999,21.492,47.999,48c0,26.511-21.491,48-47.999,48
				c-26.511,0-48.001-21.489-48.001-48C-494.003,37.695-472.512,16.203-446.002,16.203 M-446.002,12.203
				c-28.673,0-52.001,23.327-52.001,52s23.328,52,52.001,52c28.672,0,51.999-23.327,51.999-52S-417.33,12.203-446.002,12.203
				L-446.002,12.203z"/>
		</g>
		<text transform="matrix(1 0 0 1 -471.7139 83.4004)" fill="#FFFFFF" font-family="'FontAwesome'" font-size="47.9995"></text>
		<text transform="matrix(1 0 0 1 -381.999 88.2031)" fill="#FFFFFF" font-family="'Raleway'" font-size="24">assemblati</text>
		<text transform="matrix(1 0 0 1 -381.999 56.2031)" fill="#FFFFFF" font-family="'Raleway'" font-size="24">computer</text>
	</g>
	
	<g id="Punto-di-domanda">
		<path fill="#FFFFFF" d="M550.586-212.861c-21.072,12.144-34.287,36.789-34.287,47.146c0,7.857-6.07,17.144-14.285,17.144h-85.715
			c-7.855,0-12.855-12.143-12.855-20v-16.073c0-43.216,42.855-80.357,74.286-94.645c27.499-12.5,38.929-24.285,38.929-47.144
			c0-20-26.071-37.857-55-37.857c-16.072,0-30.715,5-38.572,10.357c-8.571,6.071-17.143,14.643-38.215,41.071
			c-2.857,3.571-7.145,5.715-11.071,5.715c-3.214,0-6.069-1.071-8.929-2.857l-58.572-44.644c-6.071-4.644-7.5-12.5-3.571-18.929
			c38.571-63.93,92.858-95.001,165.716-95.001c76.43,0,162.145,61.071,162.145,142.857
			C630.586-257.862,584.515-231.79,550.586-212.861z M517.729-25.709c0,7.857-6.43,14.287-14.284,14.287h-85.718
			c-7.855,0-14.283-6.429-14.283-14.287v-85.718c0-7.858,6.428-14.287,14.283-14.287h85.718c7.854,0,14.284,6.429,14.284,14.287
			V-25.709z"/>
	</g>

</svg>
