<?xml version="1.0" encoding="utf-8"?>
<!-- Generator: Adobe Illustrator 16.0.4, SVG Export Plug-In . SVG Version: 6.00 Build 0)  -->
<!DOCTYPE svg PUBLIC "-//W3C//DTD SVG 1.1//EN" "http://www.w3.org/Graphics/SVG/1.1/DTD/svg11.dtd">
<svg version="1.1" id="Layer_1" xmlns="http://www.w3.org/2000/svg" xmlns:xlink="http://www.w3.org/1999/xlink" x="0px" y="0px"
	 width="440px" height="270px" viewBox="133.74 219.46 440 270" enable-background="new 133.74 219.46 440 270"
	 xml:space="preserve">
<filter  height="105%" width="105%" y="0" x="0" id="ombra">
	<feOffset  result="offOut" in="SourceAlpha" dy="2" dx="2"></feOffset>
	<feGaussianBlur  result="blurOut" in="offOut" stdDeviation="2"></feGaussianBlur>
	<feBlend  in2="blurOut" in="SourceGraphic" mode="normal"></feBlend>
</filter>
<g id="vinto" filter="url(#ombra)">
	<path fill="#FFFFFF" d="M169.34,416.56l-35.4-105.199h39l18.8,75.4l19-75.4h35.4l-35.4,105.199H169.34z"/>
	<path fill="#FFFFFF" d="M240.938,302.56v-32h38v32H240.938z M240.938,416.56V311.36h38V416.56H240.938z"/>
	<path fill="#FFFFFF" d="M388.937,416.56h-38V357.36c0-5.201-1.169-8.967-3.5-11.301c-2.335-2.33-5.035-3.5-8.101-3.5
		c-3.2,0-6.6,1.4-10.2,4.201c-3.6,2.799-6.269,6.398-8,10.799v59h-38V311.36h34.2v15.6c3.731-5.73,8.966-10.1,15.7-13.1
		c6.731-3,14.7-4.5,23.9-4.5c7.199,0,12.899,1.3,17.1,3.9c4.2,2.6,7.4,5.834,9.6,9.699c2.2,3.869,3.632,8,4.301,12.4
		c0.665,4.4,1,8.4,1,12V416.56z"/>
	<path fill="#FFFFFF" d="M466.135,410.761c-5.335,2.268-11.035,4.168-17.101,5.699c-6.068,1.531-12.034,2.301-17.899,2.301
		c-4.27,0-8.335-0.535-12.2-1.602c-3.869-1.064-7.234-2.799-10.101-5.199c-2.868-2.4-5.134-5.531-6.8-9.4
		c-1.669-3.865-2.5-8.666-2.5-14.4V339.96h-13v-28.6h13v-33h38v33h20.601v28.6h-20.601v34.801c0,3.469,0.731,5.898,2.2,7.299
		c1.466,1.4,3.466,2.1,6,2.1c1.865,0,4-0.299,6.4-0.898c2.399-0.602,4.8-1.432,7.199-2.5L466.135,410.761z"/>
	<path fill="#FFFFFF" d="M512.533,418.56c-9.469,0-17.77-1.5-24.9-4.5c-7.135-3-13.135-7-18-12c-4.869-5-8.534-10.799-11-17.4
		c-2.469-6.6-3.7-13.5-3.7-20.699s1.231-14.1,3.7-20.699c2.466-6.602,6.131-12.4,11-17.4c4.865-5,10.865-9,18-12
		c7.131-3,15.432-4.5,24.9-4.5c9.331,0,17.6,1.5,24.8,4.5s13.231,7,18.1,12c4.866,5,8.531,10.799,11,17.4
		c2.466,6.6,3.7,13.5,3.7,20.699s-1.234,14.1-3.7,20.699c-2.469,6.602-6.134,12.4-11,17.4c-4.868,5-10.899,9-18.1,12
		S521.864,418.56,512.533,418.56z M493.932,363.96c0,7.068,1.731,12.6,5.2,16.6c3.466,4,7.932,6,13.4,6c5.465,0,9.931-2,13.399-6
		c3.466-4,5.2-9.531,5.2-16.6c0-7.066-1.734-12.6-5.2-16.6c-3.469-4-7.935-6-13.399-6c-5.469,0-9.935,2-13.4,6
		C495.664,351.36,493.932,356.894,493.932,363.96z"/>
</g>
</svg>
