<?xml version="1.0" encoding="utf-8"?>
<!-- Generator: Adobe Illustrator 16.0.4, SVG Export Plug-In . SVG Version: 6.00 Build 0)  -->
<!DOCTYPE svg PUBLIC "-//W3C//DTD SVG 1.1//EN" "http://www.w3.org/Graphics/SVG/1.1/DTD/svg11.dtd">
<svg version="1.1" id="svg" xmlns="http://www.w3.org/2000/svg" xmlns:xlink="http://www.w3.org/1999/xlink" x="0px" y="0px"
	 width="400px" height="180px" viewBox="0 0 400 180" enable-background="new 0 0 400 180" xml:space="preserve">
<filter  height="105%" width="105%" y="0" x="0" id="ombra">
	<feOffset  result="offOut" in="SourceAlpha" dy="2" dx="2"></feOffset>
	<feGaussianBlur  result="blurOut" in="offOut" stdDeviation="2"></feGaussianBlur>
	<feBlend  in2="blurOut" in="SourceGraphic" mode="normal"></feBlend>
</filter>

<g id="web" filter="url(#ombra)">
	<path id="w" fill="#FFFFFF" d="M150.6,54.233h35.8l-43,105.201h-31l-14.199-40l-14.2,40H53L10,54.233h35.8l25.4,70.6l6.6-22.601
		l-18.8-48h30.2l9,30.8l9-30.8H137.4l-18.801,48l6.602,22.601L150.6,54.233z"/>
	<path id="e" fill="#FFFFFF" d="M218.081,161.434c-9.2,0-17.4-1.435-24.602-4.3c-7.2-2.866-13.233-6.766-18.1-11.7
		c-4.869-4.932-8.569-10.601-11.102-17c-2.533-6.399-3.8-13.132-3.8-20.199c0-7.601,1.231-14.801,3.7-21.601
		c2.466-6.8,6.131-12.731,11-17.8c4.865-5.065,10.865-9.1,18-12.1c7.131-3,15.432-4.5,24.9-4.5c9.331,0,17.6,1.5,24.8,4.5
		s13.23,7,18.1,12c4.866,5,8.531,10.8,11,17.4c2.466,6.601,3.7,13.5,3.7,20.7c0,2-0.1,4.035-0.3,6.1c-0.2,2.069-0.436,3.9-0.7,5.5
		h-73.8c0.398,5.602,2.466,9.635,6.2,12.102c3.729,2.469,7.8,3.699,12.198,3.699c4.133,0,8.031-0.932,11.7-2.801
		c3.666-1.865,6.102-4.465,7.3-7.799l32.2,9.199c-4.269,8.4-10.834,15.27-19.7,20.6
		C241.912,158.768,231.012,161.434,218.081,161.434z M234.881,95.633c-0.669-5.066-2.534-9.066-5.602-12
		c-3.067-2.932-7-4.4-11.8-4.4s-8.733,1.469-11.8,4.4c-3.068,2.934-4.935,6.934-5.6,12H234.881z"/>
	<path id="b" fill="#FFFFFF" d="M332.938,161.434c-15.868,0-27.199-6.132-34-18.399v16.399h-33v-146h38v56.4
		c3.066-5.731,7.4-10.1,13-13.1c5.601-3,12.2-4.5,19.801-4.5c6.399,0,12.365,1.4,17.899,4.2c5.531,2.8,10.3,6.634,14.3,11.5
		c4,4.869,7.132,10.669,9.4,17.4c2.266,6.733,3.399,14.035,3.399,21.899c0,7.869-1.233,15.101-3.7,21.699
		c-2.469,6.602-5.869,12.301-10.199,17.102c-4.334,4.8-9.5,8.568-15.5,11.3C346.339,160.064,339.869,161.434,332.938,161.434z
		 M321.938,129.434c6.266,0,11.301-2,15.101-6c3.801-4,5.7-9.33,5.7-16c0-3.199-0.5-6.199-1.5-9c-1-2.8-2.335-5.266-4-7.399
		c-1.669-2.131-3.669-3.8-6-5c-2.335-1.2-4.899-1.8-7.7-1.8c-4,0-7.8,1.435-11.399,4.3c-3.601,2.868-6.334,6.634-8.2,11.3v18.801
		C308.869,125.833,314.869,129.434,321.938,129.434z"/>
</g>
</svg>
