<?xml version="1.0" encoding="utf-8"?>
<!-- Generator: Adobe Illustrator 16.0.4, SVG Export Plug-In . SVG Version: 6.00 Build 0)  -->
<!DOCTYPE svg PUBLIC "-//W3C//DTD SVG 1.1//EN" "http://www.w3.org/Graphics/SVG/1.1/DTD/svg11.dtd">
<svg version="1.1" id="icons" xmlns="http://www.w3.org/2000/svg" xmlns:xlink="http://www.w3.org/1999/xlink" x="0px" y="0px"
	 width="50px" height="50px" viewBox="0 0 50 50" enable-background="new 0 0 50 50" xml:space="preserve">
<g id="barra3">
	<path fill="#0071BC" d="M45,38c0,1.1-0.9,2-2,2H7c-1.1,0-2-0.9-2-2v-2c0-1.1,0.9-2,2-2h36c1.1,0,2,0.9,2,2V38z"/>
</g>
<g id="barra2">
	<path fill="#0071BC" d="M45,26c0,1.1-0.9,2-2,2H7c-1.1,0-2-0.9-2-2v-2c0-1.1,0.9-2,2-2h36c1.1,0,2,0.9,2,2V26z"/>
</g>
<g id="barra1">
	<path fill="#0071BC" d="M45,14c0,1.1-0.9,2-2,2H7c-1.1,0-2-0.9-2-2v-2c0-1.1,0.9-2,2-2h36c1.1,0,2,0.9,2,2V14z"/>
</g>
</svg>
