<?xml version="1.0" encoding="utf-8"?>
<!-- Generator: Adobe Illustrator 16.0.4, SVG Export Plug-In . SVG Version: 6.00 Build 0)  -->
<!DOCTYPE svg PUBLIC "-//W3C//DTD SVG 1.1//EN" "http://www.w3.org/Graphics/SVG/1.1/DTD/svg11.dtd">
<svg version="1.1" id="logo" xmlns="http://www.w3.org/2000/svg" xmlns:xlink="http://www.w3.org/1999/xlink" x="0px" y="0px"
	 width="125px" height="50px" viewBox="-87 50.5 125 50" enable-background="new -87 50.5 125 50" xml:space="preserve">
<g>
	<g id="ie">
		<path fill="#0071BC" d="M32.344,55.501H4.676c0.001,0.024,0.008,0.051,0.008,0.075c0,1.441-1.318,2.521-2.52,2.521
			c-1.26,0-2.58-1.143-2.58-2.521c0-0.024,0.008-0.051,0.008-0.075h-1.248c-1.656,0-3,1.342-3,3v34c0,1.655,1.344,3,3,3h2.602
			c-0.457-0.187-0.762-0.625-0.762-1.166V64.456c0-0.72,0.541-1.261,1.262-1.261h1.381c0.72,0,1.26,0.541,1.26,1.261v29.879
			c0,0.541-0.304,0.979-0.76,1.166h4.008c-0.564-0.384-0.848-1.041-0.848-2.006c0-1.619,0.779-2.397,2.397-2.397
			c1.62,0,2.399,0.778,2.399,2.397c0,0.965-0.283,1.622-0.85,2.006h5.021c-1.32-0.979-2.07-2.66-2.07-5.006V68.294
			c0-4.021,1.979-6,5.399-6c3.359,0,5.398,1.979,5.398,6v11.041c0,0.724-0.541,1.261-1.261,1.261h-4.38
			c-0.721,0-1.26,0.538-1.26,1.262V90.5c0,1.379,0.479,2.1,1.5,2.1c1.02,0,1.5-0.721,1.5-2.1v-5.643c0-0.724,0.539-1.262,1.26-1.262
			h1.38c0.72,0,1.261,0.538,1.261,1.262v5.641c0,2.346-0.75,4.025-2.068,5.006h5.018c-0.562-0.385-0.848-1.041-0.848-2.006
			c0-1.619,0.777-2.398,2.398-2.398c1.619,0,2.398,0.779,2.398,2.398c0,0.965-0.283,1.621-0.848,2.006h2.107c1.657,0,3-1.346,3-3
			v-34C35.344,56.841,34.001,55.501,32.344,55.501z"/>
		<path fill="#0071BC" d="M18.543,76.695h0.479c0.721,0,1.262-0.539,1.262-1.26v-7.143c0-1.379-0.479-2.102-1.5-2.102
			s-1.5,0.723-1.5,2.102v7.143C17.284,76.156,17.822,76.695,18.543,76.695z"/>
	</g>
	<g id="cons">
		<path fill="#122C3D" d="M-72.995,80.63c0.684,0,1.197,0.515,1.197,1.197v7.924c0,4.104-2.565,6.558-6.271,6.558
			c-3.876,0-6.271-2.681-6.271-6.558V61.249c0-3.875,2.395-6.558,6.271-6.558c3.706,0,6.271,2.451,6.271,6.558v7.354
			c0,0.686-0.514,1.194-1.197,1.194h-1.597c-0.685,0-1.197-0.512-1.197-1.194v-7.354c0-1.709-0.741-2.563-2.28-2.563
			c-1.54,0-2.279,0.854-2.279,2.563v28.504c0,1.709,0.74,2.563,2.279,2.563c1.539,0,2.28-0.854,2.28-2.563v-7.924
			c0-0.685,0.513-1.197,1.197-1.197h1.597V80.63z"/>
		<path fill="#122C3D" d="M-54.414,61.249v28.504c0,4.104-2.565,6.558-6.271,6.558c-3.876,0-6.271-2.681-6.271-6.558V61.249
			c0-3.875,2.395-6.558,6.271-6.558C-56.979,54.691-54.414,57.145-54.414,61.249z M-58.404,89.753V61.249
			c0-1.709-0.741-2.563-2.279-2.563c-1.54,0-2.28,0.854-2.28,2.563v28.504c0,1.709,0.741,2.563,2.28,2.563
			C-59.145,92.316-58.404,91.462-58.404,89.753z"/>
		<path fill="#122C3D" d="M-44.725,73.79h-0.285v20.465c0,0.687-0.514,1.196-1.197,1.196h-1.596c-0.685,0-1.197-0.512-1.197-1.196
			v-37.51c0-0.685,0.513-1.197,1.197-1.197h1.823c0.514,0,1.083,0.457,1.141,0.972l4.104,20.69h0.285V56.745
			c0-0.685,0.513-1.197,1.197-1.197h1.597c0.686,0,1.197,0.515,1.197,1.197v37.51c0,0.687-0.513,1.196-1.197,1.196h-1.824
			c-0.513,0-1.083-0.454-1.14-0.969L-44.725,73.79z"/>
		<path fill="#122C3D" d="M-19.986,84.05c0.398,1.769,0.627,3.705,0.627,5.701c0,4.104-2.564,6.558-6.271,6.558
			c-3.877,0-6.271-2.681-6.271-6.558v-6.785c0-0.685,0.514-1.194,1.197-1.194h1.596c0.685,0,1.197,0.513,1.197,1.194v6.785
			c0,1.709,0.741,2.563,2.28,2.563s2.28-0.854,2.28-2.563c0-9.293-5.815-13.567-7.925-22.858c-0.398-1.769-0.627-3.648-0.627-5.646
			c0-3.877,2.395-6.558,6.271-6.558c3.705,0,6.271,2.451,6.271,6.558v5.071c0,0.687-0.514,1.197-1.197,1.197h-1.597
			c-0.684,0-1.196-0.514-1.196-1.197v-5.071c0-1.711-0.739-2.563-2.279-2.563s-2.28,0.854-2.28,2.563
			C-27.91,70.77-21.811,76.128-19.986,84.05z"/>
		<path fill="#122C3D" d="M-13.076,95.762c-1.674,0-2.479-0.806-2.479-2.479c0-1.675,0.807-2.479,2.479-2.479s2.48,0.807,2.48,2.479
			C-10.596,94.954-11.402,95.762-13.076,95.762z"/>
	</g>
</g>
</svg>
