<?xml version="1.0" encoding="utf-8"?>
<!-- Generator: Adobe Illustrator 15.1.0, SVG Export Plug-In . SVG Version: 6.00 Build 0)  -->
<!DOCTYPE svg PUBLIC "-//W3C//DTD SVG 1.1//EN" "http://www.w3.org/Graphics/SVG/1.1/DTD/svg11.dtd">
<svg version="1.1" id="Logo" xmlns="http://www.w3.org/2000/svg" xmlns:xlink="http://www.w3.org/1999/xlink" x="0px" y="0px"
	 width="40px" height="40px" viewBox="0 0 75 75" enable-background="new 0 0 75 75" xml:space="preserve">
<g id="Sfondo_2_">
	<path fill="#FFFFFF" d="M47.521,69.858c0,0,1.064-4.61,1.084-4.697c-2.118,0.439-4.286,0.659-6.495,0.659
		c-2.627,0-5.217-0.317-7.736-0.946c-3.41,3.768-8.388,6.069-13.491,6.069c-2.114,0-4.227-0.378-6.274-1.124
		C7.778,67.333,3.15,60.782,2.815,53.128c-0.281-6.459,2.661-12.09,7.499-14.347c0.089-0.041,0.177-0.081,0.266-0.121
		c-0.231-1.557-0.348-3.131-0.348-4.717c0-1.912,0.173-3.82,0.515-5.701c-3.646-2.461-7.072-3.909-7.113-3.927L0,22.794l0.972-3.819
		l2.116-8.209l3.939,0.453c0.538,0.062,4.844,0.584,10.805,2.072C23.86,6.209,32.717,2.067,42.109,2.067
		c17.577,0,31.876,14.3,31.876,31.877c0,9.306-3.93,17.914-10.862,23.971c-0.007,3.413-0.431,6.961-1.267,10.582l-1.025,4.437
		L47.521,69.858z"/>
</g>
<circle id="Interno_1_" fill="#A4D7F4" cx="42.109" cy="33.944" r="27.323"/>
<path id="Rametti_2_" fill="#005295" stroke="#FFFFFF" stroke-width="1.7077" stroke-miterlimit="10" d="M57.419,67.471
	l-4.437-1.025c2.218-9.6,0.835-18.022-4.111-25.033c-7.031-9.969-19.957-15.441-29.786-18.305c3.935,3.232,7.563,7.479,8.574,12.592
	c1.13,5.714-1.131,11.414-6.719,16.939l-3.201-3.237c4.43-4.382,6.266-8.692,5.454-12.812C21.256,26.757,5.54,20.176,5.381,20.112
	l1.126-4.369c1.325,0.152,32.601,3.944,46.077,23.032C58.315,46.894,59.942,56.548,57.419,67.471z"/>
<path id="Bordo_ciliegia_2_" fill="#FFFFFF" d="M20.883,68c-1.782,0-3.566-0.271-5.302-0.902C9.838,65.006,5.942,59.48,5.66,52.979
	c-0.232-5.304,2.067-9.862,5.857-11.63c1.514-0.706,3.01-1.056,4.446-1.056c4.005,0,6.509,2.686,7.698,4.399
	c0.84-0.258,1.967-0.5,3.226-0.5c2.182,0,6.156,0.812,8.257,6.248c1.346,3.48,0.748,7.426-1.638,10.906
	C30.672,65.48,25.835,68,20.885,68C20.885,68,20.884,68,20.883,68z"/>
<path id="Ciliegia_2_" fill="#13B5EA" d="M16.165,65.54c10.698,3.894,20.507-6.41,17.387-14.482
	c-3.119-8.073-10.614-4.254-10.614-4.254s-3.402-7.296-10.699-3.895C4.943,46.312,5.468,61.647,16.165,65.54z"/>
<path id="Riflesso_2_" fill="#FFFFFF" d="M26.956,49.074c0,0,2.739,0.795,1.377,4.539c-1.168,3.21,1.506,4.184,2.675,0.975
	C32.37,50.842,26.956,49.074,26.956,49.074z"/>
</svg>
